<svg width="439" height="594" viewBox="0 0 439 594" fill="none" xmlns="http://www.w3.org/2000/svg">
<g filter="url(#filter0_d_94_97)">
<path fill-rule="evenodd" clip-rule="evenodd" d="M389 20H49C32.9837 20 20 32.9837 20 49V489C20 505.016 32.9837 518 49 518L134 519L149 574H219H289L304 519L389 518C405.016 518 418 505.016 418 489V49C418 32.9837 405.016 20 389 20Z" fill="#1E2850" fill-opacity="0.5" shape-rendering="crispEdges"/>
<path d="M49.0059 517.5H49C33.2599 517.5 20.5 504.74 20.5 489V49C20.5 33.2599 33.2599 20.5 49 20.5H389C404.74 20.5 417.5 33.2599 417.5 49V489C417.5 504.74 404.74 517.5 389 517.5L388.994 517.5L303.994 518.5L303.617 518.504L303.518 518.868L288.618 573.5H219H149.382L134.482 518.868L134.383 518.504L134.006 518.5L49.0059 517.5Z" stroke="#10EFFF" stroke-opacity="0.5" shape-rendering="crispEdges"/>
</g>
<g filter="url(#filter1_d_94_97)">
<circle cx="347" cy="547" r="8" transform="rotate(-180 347 547)" stroke="#10EFFF" stroke-opacity="0.5" stroke-width="4" shape-rendering="crispEdges"/>
</g>
<g filter="url(#filter2_d_94_97)">
<circle cx="378" cy="547" r="8" transform="rotate(-180 378 547)" stroke="#10EFFF" stroke-opacity="0.5" stroke-width="4" shape-rendering="crispEdges"/>
</g>
<g filter="url(#filter3_d_94_97)">
<circle cx="409" cy="547" r="8" transform="rotate(-180 409 547)" stroke="#10EFFF" stroke-opacity="0.5" stroke-width="4" shape-rendering="crispEdges"/>
</g>
<defs>
<filter id="filter0_d_94_97" x="0" y="0" width="438" height="594" filterUnits="userSpaceOnUse" color-interpolation-filters="sRGB">
<feFlood flood-opacity="0" result="BackgroundImageFix"/>
<feColorMatrix in="SourceAlpha" type="matrix" values="0 0 0 0 0 0 0 0 0 0 0 0 0 0 0 0 0 0 127 0" result="hardAlpha"/>
<feOffset/>
<feGaussianBlur stdDeviation="10"/>
<feComposite in2="hardAlpha" operator="out"/>
<feColorMatrix type="matrix" values="0 0 0 0 0 0 0 0 0 0.839216 0 0 0 0 0.960784 0 0 0 0.5 0"/>
<feBlend mode="normal" in2="BackgroundImageFix" result="effect1_dropShadow_94_97"/>
<feBlend mode="normal" in="SourceGraphic" in2="effect1_dropShadow_94_97" result="shape"/>
</filter>
<filter id="filter1_d_94_97" x="317" y="517" width="60" height="60" filterUnits="userSpaceOnUse" color-interpolation-filters="sRGB">
<feFlood flood-opacity="0" result="BackgroundImageFix"/>
<feColorMatrix in="SourceAlpha" type="matrix" values="0 0 0 0 0 0 0 0 0 0 0 0 0 0 0 0 0 0 127 0" result="hardAlpha"/>
<feOffset/>
<feGaussianBlur stdDeviation="10"/>
<feComposite in2="hardAlpha" operator="out"/>
<feColorMatrix type="matrix" values="0 0 0 0 1 0 0 0 0 1 0 0 0 0 1 0 0 0 0.25 0"/>
<feBlend mode="normal" in2="BackgroundImageFix" result="effect1_dropShadow_94_97"/>
<feBlend mode="normal" in="SourceGraphic" in2="effect1_dropShadow_94_97" result="shape"/>
</filter>
<filter id="filter2_d_94_97" x="348" y="517" width="60" height="60" filterUnits="userSpaceOnUse" color-interpolation-filters="sRGB">
<feFlood flood-opacity="0" result="BackgroundImageFix"/>
<feColorMatrix in="SourceAlpha" type="matrix" values="0 0 0 0 0 0 0 0 0 0 0 0 0 0 0 0 0 0 127 0" result="hardAlpha"/>
<feOffset/>
<feGaussianBlur stdDeviation="10"/>
<feComposite in2="hardAlpha" operator="out"/>
<feColorMatrix type="matrix" values="0 0 0 0 1 0 0 0 0 1 0 0 0 0 1 0 0 0 0.25 0"/>
<feBlend mode="normal" in2="BackgroundImageFix" result="effect1_dropShadow_94_97"/>
<feBlend mode="normal" in="SourceGraphic" in2="effect1_dropShadow_94_97" result="shape"/>
</filter>
<filter id="filter3_d_94_97" x="379" y="517" width="60" height="60" filterUnits="userSpaceOnUse" color-interpolation-filters="sRGB">
<feFlood flood-opacity="0" result="BackgroundImageFix"/>
<feColorMatrix in="SourceAlpha" type="matrix" values="0 0 0 0 0 0 0 0 0 0 0 0 0 0 0 0 0 0 127 0" result="hardAlpha"/>
<feOffset/>
<feGaussianBlur stdDeviation="10"/>
<feComposite in2="hardAlpha" operator="out"/>
<feColorMatrix type="matrix" values="0 0 0 0 1 0 0 0 0 1 0 0 0 0 1 0 0 0 0.25 0"/>
<feBlend mode="normal" in2="BackgroundImageFix" result="effect1_dropShadow_94_97"/>
<feBlend mode="normal" in="SourceGraphic" in2="effect1_dropShadow_94_97" result="shape"/>
</filter>
</defs>
</svg>
