<svg width="55" height="33" viewBox="0 0 55 33" fill="none" xmlns="http://www.w3.org/2000/svg">
<path d="M35 22.8401L33.3346 24.5056V27.7175M37.0223 22.9591L35.8327 24.1487V24.4461L36.7844 25.3978V25.6357L36.3085 26.1115M37.855 24.0297V29.2639M41.6617 22.9591V25.6357L39.461 27.8364V31.5836M21.6171 7.79181V6.18586M18.3457 6.00742V4.69887L20.3085 2.73605M14.4795 7.79181V5.35315M11.6245 7.79181V0.832703M8.11523 8.32713V6.42378L10.1375 4.40148V2.73605M44.1598 22.7807V27.1227L46.0037 28.9665H47.5502" stroke="url(#paint0_linear_5_22)" stroke-width="2"/>
<path d="M14.4928 11.7162V11.0185C12.6956 10.9339 8.86033 10.8789 7.89622 11.3356C6.69107 11.9065 5.23222 18.6299 5.8665 19.391C6.37393 20 10.5602 19.8562 12.5899 19.7082L13.2242 16.7905H9.73565L10.3065 14.1899H17.0299L15.2539 22.6259C10.8139 22.6259 3.43085 23.8564 3.07565 21.167C2.63165 17.8053 4.21736 11.3356 5.8665 9.49621C7.18582 8.02467 14.7042 7.95278 18.2985 8.10078L17.4739 11.7162H14.4928Z" stroke="url(#paint1_linear_5_22)" stroke-width="6"/>
<path d="M19.9476 8.10078L16.7128 22.6259H20.2648L22.2945 13.9362L24.1974 19.7082H26.6076L31.5551 13.9362L29.5254 22.6259H33.1408L36.5025 8.10078H32.3796L26.6076 15.0145L24.1974 8.10078H19.9476Z" stroke="url(#paint2_linear_5_22)" stroke-width="6"/>
<path d="M38.7225 8.92535C40.3716 7.59335 46.8414 8.01621 50.5836 8.10078L49.9494 11.7162H46.7145V11.0819C45.0442 11.1242 41.3433 10.8447 40.6888 11.3356C40.1814 11.7162 39.8642 12.7311 40.3716 13.5556C40.7303 14.1384 43.7334 13.2385 47.2854 14.1899C49.4152 14.7604 49.1882 20.2156 46.7145 21.9282C45.5045 22.7659 38.4054 22.8162 34.4728 22.6259L35.2339 19.7082H44.1774C45.5094 19.7082 45.4367 17.3884 44.8751 17.1076C43.4796 16.4099 38.3777 17.9322 37.3905 16.2196C35.4162 12.7945 37.3087 10.0673 38.7225 8.92535Z" stroke="url(#paint3_linear_5_22)" stroke-width="6"/>
<path d="M14.4928 11.7162V11.0185C12.6956 10.9339 8.86033 10.879 7.89622 11.3356C6.69107 11.9065 5.23222 18.6299 5.8665 19.3911C6.37393 20 10.5602 19.8562 12.5899 19.7082L13.2242 16.7905H9.73565L10.3065 14.1899H17.0299L15.2539 22.6259C10.8139 22.6259 3.43085 23.8564 3.07565 21.1671C2.63165 17.8054 4.21736 11.3356 5.8665 9.49621C7.18582 8.02467 14.7042 7.95278 18.2985 8.10078L17.4739 11.7162H14.4928Z" fill="url(#paint4_linear_5_22)"/>
<path d="M19.9476 8.10078L16.7128 22.6259H20.2648L22.2945 13.9362L24.1974 19.7082H26.6076L31.5551 13.9362L29.5254 22.6259H33.1408L36.5025 8.10078H32.3796L26.6076 15.0145L24.1974 8.10078H19.9476Z" fill="url(#paint5_linear_5_22)"/>
<path d="M38.7225 8.92535C40.3716 7.59335 46.8414 8.01621 50.5836 8.10078L49.9494 11.7162H46.7145V11.0819C45.0442 11.1242 41.3433 10.8447 40.6888 11.3356C40.1814 11.7162 39.8642 12.7311 40.3716 13.5556C40.7303 14.1384 43.7334 13.2385 47.2854 14.1899C49.4152 14.7604 49.1882 20.2156 46.7145 21.9282C45.5045 22.7659 38.4054 22.8162 34.4728 22.6259L35.2339 19.7082H44.1774C45.5094 19.7082 45.4367 17.3884 44.8751 17.1076C43.4796 16.4099 38.3777 17.9322 37.3905 16.2196C35.4162 12.7945 37.3087 10.0673 38.7225 8.92535Z" fill="url(#paint6_linear_5_22)"/>
<path d="M14.4928 11.7162V11.0185C12.6956 10.9339 8.86033 10.879 7.89622 11.3356C6.69107 11.9065 5.23222 18.6299 5.8665 19.3911C6.37393 20 10.5602 19.8562 12.5899 19.7082L13.2242 16.7905H9.73565L10.3065 14.1899H17.0299L15.2539 22.6259C10.8139 22.6259 3.43085 23.8564 3.07565 21.1671C2.63165 17.8054 4.21736 11.3356 5.8665 9.49621C7.18582 8.02467 14.7042 7.95278 18.2985 8.10078L17.4739 11.7162H14.4928Z" stroke="black" stroke-width="2"/>
<path d="M19.9476 8.10078L16.7128 22.6259H20.2648L22.2945 13.9362L24.1974 19.7082H26.6076L31.5551 13.9362L29.5254 22.6259H33.1408L36.5025 8.10078H32.3796L26.6076 15.0145L24.1974 8.10078H19.9476Z" stroke="black" stroke-width="2"/>
<path d="M38.7225 8.92535C40.3716 7.59335 46.8414 8.01621 50.5836 8.10078L49.9494 11.7162H46.7145V11.0819C45.0442 11.1242 41.3433 10.8447 40.6888 11.3356C40.1814 11.7162 39.8642 12.7311 40.3716 13.5556C40.7303 14.1384 43.7334 13.2385 47.2854 14.1899C49.4152 14.7604 49.1882 20.2156 46.7145 21.9282C45.5045 22.7659 38.4054 22.8162 34.4728 22.6259L35.2339 19.7082H44.1774C45.5094 19.7082 45.4367 17.3884 44.8751 17.1076C43.4796 16.4099 38.3777 17.9322 37.3905 16.2196C35.4162 12.7945 37.3087 10.0673 38.7225 8.92535Z" stroke="black" stroke-width="2"/>
<path d="M17.7509 12.0149L18.7026 7.85132M15.6097 22.9591L17.513 13.9777M6.33086 19.6283C5.69657 18.8671 7.32646 11.6935 8.53161 11.1227M24.1152 7.85132L26.6134 14.9889M36.8439 7.85132L33.3941 22.9591M22.5093 14.3941L20.487 22.9591M51 7.85132L50.3062 11.7162H47.0714V11.0819C45.4011 11.1242 41.7002 10.8447 41.0457 11.3356C40.5382 11.7162 40.2211 12.7311 40.7285 13.5556C41.0872 14.1384 44.0902 13.2385 47.6422 14.1899C49.7721 14.7604 49.5451 20.2156 47.0714 21.9282C45.8614 22.7659 38.7622 22.8162 34.8297 22.6259" stroke="url(#paint7_linear_5_22)" stroke-width="6"/>
<path d="M14.4928 11.7162V11.0185C12.6956 10.9339 8.86033 10.879 7.89622 11.3356C6.69107 11.9065 5.23222 18.6299 5.8665 19.3911C6.37393 20 10.5602 19.8562 12.5899 19.7082L13.2242 16.7905H9.73565L10.3065 14.1899H17.0299L15.2539 22.6259C10.8139 22.6259 3.43085 23.8564 3.07565 21.1671C2.63165 17.8054 4.21736 11.3356 5.8665 9.49621C7.18582 8.02467 14.7042 7.95278 18.2985 8.10078L17.4739 11.7162H14.4928Z" stroke="white" stroke-width="2"/>
<path d="M19.9476 8.10078L16.7128 22.6259H20.2648L22.2945 13.9362L24.1974 19.7082H26.6076L31.5551 13.9362L29.5254 22.6259H33.1408L36.5025 8.10078H32.3796L26.6076 15.0145L24.1974 8.10078H19.9476Z" stroke="white" stroke-width="2"/>
<path d="M38.7225 8.92535C40.3716 7.59335 46.8414 8.01621 50.5836 8.10078L49.9494 11.7162H46.7145V11.0819C45.0442 11.1242 41.3433 10.8447 40.6888 11.3356C40.1814 11.7162 39.8642 12.7311 40.3716 13.5556C40.7303 14.1384 43.7334 13.2385 47.2854 14.1899C49.4152 14.7604 49.1882 20.2156 46.7145 21.9282C45.5045 22.7659 38.4054 22.8162 34.4728 22.6259L35.2339 19.7082H44.1774C45.5094 19.7082 45.4367 17.3884 44.8751 17.1076C43.4796 16.4099 38.3777 17.9322 37.3905 16.2196C35.4162 12.7945 37.3087 10.0673 38.7225 8.92535Z" stroke="white" stroke-width="2"/>
<defs>
<linearGradient id="paint0_linear_5_22" x1="27.8327" y1="0.832703" x2="27.8327" y2="32.7732" gradientUnits="userSpaceOnUse">
<stop stop-color="#00FFFF"/>
<stop offset="1" stop-color="#FF00FB"/>
</linearGradient>
<linearGradient id="paint1_linear_5_22" x1="26.7918" y1="7.97028" x2="26.7918" y2="22.9068" gradientUnits="userSpaceOnUse">
<stop stop-color="#00FFFF"/>
<stop offset="1" stop-color="#FF00FB"/>
</linearGradient>
<linearGradient id="paint2_linear_5_22" x1="26.7918" y1="7.97028" x2="26.7918" y2="22.9068" gradientUnits="userSpaceOnUse">
<stop stop-color="#00FFFF"/>
<stop offset="1" stop-color="#FF00FB"/>
</linearGradient>
<linearGradient id="paint3_linear_5_22" x1="26.7918" y1="7.97028" x2="26.7918" y2="22.9068" gradientUnits="userSpaceOnUse">
<stop stop-color="#00FFFF"/>
<stop offset="1" stop-color="#FF00FB"/>
</linearGradient>
<linearGradient id="paint4_linear_5_22" x1="26.7918" y1="7.97028" x2="26.7918" y2="22.9069" gradientUnits="userSpaceOnUse">
<stop stop-color="white"/>
<stop offset="0.05" stop-color="#13ECFF"/>
<stop offset="0.2" stop-color="#69ABC1"/>
<stop offset="0.335" stop-color="#69ABC1"/>
<stop offset="0.5" stop-color="white"/>
<stop offset="0.64" stop-color="#69ABC1"/>
<stop offset="0.8" stop-color="#562F88"/>
<stop offset="0.95" stop-color="#DF7DEF"/>
<stop offset="1" stop-color="white"/>
</linearGradient>
<linearGradient id="paint5_linear_5_22" x1="26.7918" y1="7.97028" x2="26.7918" y2="22.9069" gradientUnits="userSpaceOnUse">
<stop stop-color="white"/>
<stop offset="0.05" stop-color="#13ECFF"/>
<stop offset="0.2" stop-color="#69ABC1"/>
<stop offset="0.335" stop-color="#69ABC1"/>
<stop offset="0.5" stop-color="white"/>
<stop offset="0.64" stop-color="#69ABC1"/>
<stop offset="0.8" stop-color="#562F88"/>
<stop offset="0.95" stop-color="#DF7DEF"/>
<stop offset="1" stop-color="white"/>
</linearGradient>
<linearGradient id="paint6_linear_5_22" x1="26.7918" y1="7.97028" x2="26.7918" y2="22.9069" gradientUnits="userSpaceOnUse">
<stop stop-color="white"/>
<stop offset="0.05" stop-color="#13ECFF"/>
<stop offset="0.2" stop-color="#69ABC1"/>
<stop offset="0.335" stop-color="#69ABC1"/>
<stop offset="0.5" stop-color="white"/>
<stop offset="0.64" stop-color="#69ABC1"/>
<stop offset="0.8" stop-color="#562F88"/>
<stop offset="0.95" stop-color="#DF7DEF"/>
<stop offset="1" stop-color="white"/>
</linearGradient>
<linearGradient id="paint7_linear_5_22" x1="27.1487" y1="7.97028" x2="27.1487" y2="22.9068" gradientUnits="userSpaceOnUse">
<stop stop-color="#00FFFF"/>
<stop offset="1" stop-color="#FF00FB"/>
</linearGradient>
</defs>
</svg>
