<svg width="396" height="137" viewBox="0 0 396 137" fill="none" xmlns="http://www.w3.org/2000/svg">
<g filter="url(#filter0_d_94_96)">
<rect x="20" y="20" width="356" height="97" rx="30" fill="#1E2850" fill-opacity="0.5" shape-rendering="crispEdges"/>
<rect x="20.5" y="20.5" width="355" height="96" rx="29.5" stroke="#10EFFF" stroke-opacity="0.5" shape-rendering="crispEdges"/>
</g>
<g clip-path="url(#clip0_94_96)">
<path fill-rule="evenodd" clip-rule="evenodd" d="M279 37H343V101H279V37V37Z" fill="#F7DF1E"/>
<path fill-rule="evenodd" clip-rule="evenodd" d="M295.828 90.4831L300.725 87.5191C301.67 89.1943 302.53 90.6118 304.592 90.6118C306.568 90.6118 307.814 89.8387 307.814 86.8317V66.3822H313.828V86.9168C313.828 93.1461 310.177 95.9815 304.849 95.9815C300.038 95.9815 297.245 93.4897 295.828 90.4826" fill="black"/>
<path fill-rule="evenodd" clip-rule="evenodd" d="M317.095 89.8386L321.992 87.0032C323.281 89.1085 324.957 90.655 327.921 90.655C330.413 90.655 332.002 89.409 332.002 87.6905C332.002 85.6284 330.37 84.898 327.62 83.6955L326.117 83.0506C321.778 81.2037 318.899 78.8838 318.899 73.9862C318.899 69.4753 322.336 66.0383 327.706 66.0383C331.53 66.0383 334.279 67.3702 336.255 70.8501L331.573 73.8572C330.542 72.01 329.425 71.2798 327.707 71.2798C325.945 71.2798 324.828 72.3968 324.828 73.8572C324.828 75.6616 325.945 76.3921 328.522 77.5092L330.026 78.1535C335.138 80.3447 338.017 82.5784 338.017 87.6046C338.017 93.018 333.764 95.982 328.05 95.982C322.465 95.982 318.856 93.3186 317.095 89.8386" fill="black"/>
</g>
<path fill-rule="evenodd" clip-rule="evenodd" d="M174.886 95.602L169.75 38H226.184L221.043 95.5926L197.933 102L174.886 95.602Z" fill="#0071BC"/>
<path fill-rule="evenodd" clip-rule="evenodd" d="M198.015 97.0994L216.665 91.9685L221.035 42.7971H198.015V97.0994Z" fill="#29ABE2"/>
<path fill-rule="evenodd" clip-rule="evenodd" d="M181.506 63.9598L182.125 71.014L198.015 63.9598V56.894L181.506 63.9598Z" fill="#B3B3B3"/>
<path fill-rule="evenodd" clip-rule="evenodd" d="M215.613 49.3517L198.015 56.894V63.9598L215.007 56.406L215.613 49.3517Z" fill="#E6E6E6"/>
<path fill-rule="evenodd" clip-rule="evenodd" d="M198.015 82.4171L197.96 82.4253L190.08 80.309L189.565 74.6823H182.473L183.462 85.7674L197.959 89.7811L198.015 89.7678V82.4171Z" fill="#E6E6E6"/>
<path fill-rule="evenodd" clip-rule="evenodd" d="M198.015 63.9598V71.0141H206.642L205.858 80.237L198.015 82.4232V89.7734L212.463 85.7596L214.365 63.9598H198.015Z" fill="white"/>
<path fill-rule="evenodd" clip-rule="evenodd" d="M198.015 63.9598H181.506L182.125 71.0141H198.015V63.9598Z" fill="#E6E6E6"/>
<path fill-rule="evenodd" clip-rule="evenodd" d="M198.014 56.406V49.3517H197.943H180.251L180.877 56.406H198.014Z" fill="#E6E6E6"/>
<path fill-rule="evenodd" clip-rule="evenodd" d="M198.015 49.3517V56.3176V56.406H215.007L215.613 49.3517H198.015Z" fill="white"/>
<path fill-rule="evenodd" clip-rule="evenodd" d="M60.8857 95.6023L55.75 38H112.182L107.041 95.5933L83.9314 102L60.8857 95.6023Z" fill="#E44D26"/>
<path fill-rule="evenodd" clip-rule="evenodd" d="M83.9661 97.103L102.64 91.926L107.033 42.7098H83.9661V97.103Z" fill="#F16529"/>
<path d="M74.6174 64.0737H83.9659V71.1383H68.1564L66.251 49.7746H83.9659V56.8394H73.9718L74.6174 64.0737Z" fill="#EBEBEB"/>
<path d="M83.9349 82.4297L83.9659 82.4215V89.7717L83.9334 89.7807L69.4619 85.7634L68.4721 74.6708H75.5639L76.0669 80.3052L83.9349 82.4297Z" fill="#EBEBEB"/>
<path d="M83.9417 49.7746H101.639L101.006 56.8394H83.9417V49.7746Z" fill="white"/>
<path d="M83.9417 71.1383V64.0737H100.363L100.191 65.9708L98.4246 85.7634L83.9417 89.7773V82.4274L91.821 80.3007L92.641 71.1383H83.9417Z" fill="white"/>
<defs>
<filter id="filter0_d_94_96" x="0" y="0" width="396" height="137" filterUnits="userSpaceOnUse" color-interpolation-filters="sRGB">
<feFlood flood-opacity="0" result="BackgroundImageFix"/>
<feColorMatrix in="SourceAlpha" type="matrix" values="0 0 0 0 0 0 0 0 0 0 0 0 0 0 0 0 0 0 127 0" result="hardAlpha"/>
<feOffset/>
<feGaussianBlur stdDeviation="10"/>
<feComposite in2="hardAlpha" operator="out"/>
<feColorMatrix type="matrix" values="0 0 0 0 0 0 0 0 0 0.839216 0 0 0 0 0.960784 0 0 0 0.5 0"/>
<feBlend mode="normal" in2="BackgroundImageFix" result="effect1_dropShadow_94_96"/>
<feBlend mode="normal" in="SourceGraphic" in2="effect1_dropShadow_94_96" result="shape"/>
</filter>
<clipPath id="clip0_94_96">
<rect width="64" height="64" fill="white" transform="translate(279 37)"/>
</clipPath>
</defs>
</svg>
