<svg width="544" height="216" viewBox="0 0 544 216" fill="none" xmlns="http://www.w3.org/2000/svg">
<g filter="url(#filter0_f_17_14)">
<path d="M33.34 42.83C31.2207 43.0567 29.3507 43.17 27.73 43.17C26.9593 43.17 26.3417 42.9377 25.877 42.473C25.4123 42.0083 25.18 41.3907 25.18 40.62V36.71C25.18 35.86 25.418 35.197 25.894 34.721C26.3813 34.2337 27.05 33.99 27.9 33.99H33.34V36.285H28.835C28.3817 36.285 28.155 36.5117 28.155 36.965V40.28C28.155 40.45 28.2117 40.5917 28.325 40.705C28.4383 40.8183 28.58 40.875 28.75 40.875C29.77 40.875 31.3 40.79 33.34 40.62V42.83ZM43.8767 40.45C43.8767 41.3 43.633 41.9687 43.1457 42.456C42.6697 42.932 42.0067 43.17 41.1567 43.17H37.2467C36.3967 43.17 35.728 42.932 35.2407 42.456C34.7647 41.9687 34.5267 41.3 34.5267 40.45V36.54C34.5267 35.69 34.7647 35.027 35.2407 34.551C35.728 34.0637 36.3967 33.82 37.2467 33.82H41.1567C42.0067 33.82 42.6697 34.0637 43.1457 34.551C43.633 35.027 43.8767 35.69 43.8767 36.54V40.45ZM40.9017 36.795C40.9017 36.3417 40.675 36.115 40.2217 36.115H38.1817C37.7283 36.115 37.5017 36.3417 37.5017 36.795V40.195C37.5017 40.6483 37.7283 40.875 38.1817 40.875H40.2217C40.675 40.875 40.9017 40.6483 40.9017 40.195V36.795ZM50.4197 36.285C49.819 36.285 49.139 36.3983 48.3797 36.625V43H45.4047V33.99H48.0397L48.2097 34.84C48.7424 34.4887 49.2864 34.2337 49.8417 34.075C50.4084 33.905 50.8844 33.82 51.2697 33.82H52.0347C52.8054 33.82 53.423 34.0523 53.8877 34.517C54.3524 34.9817 54.5847 35.5993 54.5847 36.37V43H51.6097V36.88C51.6097 36.71 51.553 36.5683 51.4397 36.455C51.3264 36.3417 51.1847 36.285 51.0147 36.285H50.4197ZM55.7727 40.62C58.0734 40.79 59.8867 40.875 61.2127 40.875C61.3827 40.875 61.5244 40.8183 61.6377 40.705C61.751 40.5917 61.8077 40.45 61.8077 40.28V39.685H58.1527C57.382 39.685 56.7644 39.4527 56.2997 38.988C55.835 38.5233 55.6027 37.9057 55.6027 37.135V36.54C55.6027 35.7693 55.835 35.1517 56.2997 34.687C56.7644 34.2223 57.382 33.99 58.1527 33.99H63.9327V36.2H59.1727C59.0027 36.2 58.861 36.2567 58.7477 36.37C58.6344 36.4833 58.5777 36.625 58.5777 36.795C58.5777 36.965 58.6344 37.1067 58.7477 37.22C58.861 37.3333 59.0027 37.39 59.1727 37.39H62.2327C63.0034 37.39 63.621 37.6223 64.0857 38.087C64.5504 38.5517 64.7827 39.1693 64.7827 39.94V40.62C64.7827 41.3907 64.5504 42.0083 64.0857 42.473C63.621 42.9377 63.0034 43.17 62.2327 43.17C60.2267 43.17 58.0734 43.0567 55.7727 42.83V40.62ZM72.264 43C71.1647 43.1133 70.088 43.17 69.034 43.17C68.2634 43.17 67.6457 42.9377 67.181 42.473C66.7164 42.0083 66.484 41.3907 66.484 40.62V36.285H65.464V33.99H66.484L66.824 31.95H69.459V33.99H71.584V36.285H69.459V40.195C69.459 40.365 69.5157 40.5067 69.629 40.62C69.7424 40.7333 69.884 40.79 70.054 40.79H72.264V43ZM84.593 33.82C85.511 33.82 86.2193 34.16 86.718 34.84C87.2393 34.4887 87.8003 34.2337 88.401 34.075C89.013 33.905 89.557 33.82 90.033 33.82H90.203C90.9737 33.82 91.5913 34.0523 92.056 34.517C92.5207 34.9817 92.753 35.5993 92.753 36.37V43H89.778V36.88C89.778 36.71 89.7213 36.5683 89.608 36.455C89.4947 36.3417 89.353 36.285 89.183 36.285H89.098C88.588 36.285 87.9363 36.3983 87.143 36.625V43H84.168V36.88C84.168 36.71 84.1113 36.5683 83.998 36.455C83.8847 36.3417 83.743 36.285 83.573 36.285H83.488C82.978 36.285 82.3263 36.3983 81.533 36.625V43H78.558V33.99H81.193L81.363 34.84C81.8957 34.4887 82.4397 34.2337 82.995 34.075C83.5617 33.905 84.0377 33.82 84.423 33.82H84.593ZM97.7647 35.945C97.3114 35.945 97.0847 36.1717 97.0847 36.625V37.56H99.9747V36.625C99.9747 36.1717 99.748 35.945 99.2947 35.945H97.7647ZM102.61 42.83C100.422 43.0567 98.439 43.17 96.6597 43.17C95.889 43.17 95.2714 42.9377 94.8067 42.473C94.342 42.0083 94.1097 41.3907 94.1097 40.62V36.54C94.1097 35.69 94.3477 35.027 94.8237 34.551C95.311 34.0637 95.9797 33.82 96.8297 33.82H100.23C101.08 33.82 101.743 34.0637 102.219 34.551C102.706 35.027 102.95 35.69 102.95 36.54V39.685H97.0847V40.365C97.0847 40.535 97.1414 40.6767 97.2547 40.79C97.368 40.9033 97.5097 40.96 97.6797 40.96C98.8017 40.96 100.445 40.875 102.61 40.705V42.83ZM109.4 36.37V34.16H116.37V36.37H109.4ZM109.4 39.94V37.73H116.37V39.94H109.4ZM125.21 37.985C126.23 38.4157 126.74 39.124 126.74 40.11V43.595C126.74 43.765 126.797 43.9067 126.91 44.02C127.024 44.1333 127.165 44.19 127.335 44.19H128.44V46.57H126.23C125.46 46.57 124.842 46.3377 124.377 45.873C123.913 45.4083 123.68 44.7907 123.68 44.02V39.77C123.68 39.6 123.624 39.4583 123.51 39.345C123.397 39.2317 123.255 39.175 123.085 39.175H122.32V36.795H123.085C123.255 36.795 123.397 36.7383 123.51 36.625C123.624 36.5117 123.68 36.37 123.68 36.2V31.95C123.68 31.1793 123.913 30.5617 124.377 30.097C124.842 29.6323 125.46 29.4 126.23 29.4H128.44V31.78H127.335C127.165 31.78 127.024 31.8367 126.91 31.95C126.797 32.0633 126.74 32.205 126.74 32.375V35.86C126.74 36.846 126.23 37.5543 125.21 37.985ZM30.365 56.285C29.7643 56.285 29.0843 56.3983 28.325 56.625V63H25.35V53.99H27.985L28.155 54.84C28.6877 54.4887 29.2317 54.2337 29.787 54.075C30.3537 53.905 30.8297 53.82 31.215 53.82H31.98C32.7507 53.82 33.3683 54.0523 33.833 54.517C34.2977 54.9817 34.53 55.5993 34.53 56.37V63H31.555V56.88C31.555 56.71 31.4983 56.5683 31.385 56.455C31.2717 56.3417 31.13 56.285 30.96 56.285H30.365ZM39.628 60.79C40.2287 60.79 40.9087 60.6767 41.668 60.45V59.43H39.203C39.033 59.43 38.8913 59.4867 38.778 59.6C38.6647 59.7133 38.608 59.855 38.608 60.025V60.195C38.608 60.365 38.6647 60.5067 38.778 60.62C38.8913 60.7333 39.033 60.79 39.203 60.79H39.628ZM36.483 54.16C38.557 53.9333 40.427 53.82 42.093 53.82C42.8637 53.82 43.4813 54.0523 43.946 54.517C44.4107 54.9817 44.643 55.5993 44.643 56.37V63H42.008L41.838 62.15C41.3053 62.5013 40.7557 62.762 40.189 62.932C39.6337 63.0907 39.1633 63.17 38.778 63.17H38.183C37.4123 63.17 36.7947 62.9377 36.33 62.473C35.8653 62.0083 35.633 61.3907 35.633 60.62V59.855C35.633 59.0843 35.8653 58.4667 36.33 58.002C36.7947 57.5373 37.4123 57.305 38.183 57.305H41.668V56.625C41.668 56.455 41.6113 56.3133 41.498 56.2C41.3847 56.0867 41.243 56.03 41.073 56.03C40.3363 56.03 39.5203 56.064 38.625 56.132C37.741 56.2 37.027 56.251 36.483 56.285V54.16ZM52.2034 53.82C53.1214 53.82 53.8297 54.16 54.3284 54.84C54.8497 54.4887 55.4107 54.2337 56.0114 54.075C56.6234 53.905 57.1674 53.82 57.6434 53.82H57.8134C58.584 53.82 59.2017 54.0523 59.6664 54.517C60.131 54.9817 60.3634 55.5993 60.3634 56.37V63H57.3884V56.88C57.3884 56.71 57.3317 56.5683 57.2184 56.455C57.105 56.3417 56.9634 56.285 56.7934 56.285H56.7084C56.1984 56.285 55.5467 56.3983 54.7534 56.625V63H51.7784V56.88C51.7784 56.71 51.7217 56.5683 51.6084 56.455C51.495 56.3417 51.3534 56.285 51.1834 56.285H51.0984C50.5884 56.285 49.9367 56.3983 49.1434 56.625V63H46.1684V53.99H48.8034L48.9734 54.84C49.506 54.4887 50.05 54.2337 50.6054 54.075C51.172 53.905 51.648 53.82 52.0334 53.82H52.2034ZM65.375 55.945C64.9217 55.945 64.695 56.1717 64.695 56.625V57.56H67.585V56.625C67.585 56.1717 67.3584 55.945 66.905 55.945H65.375ZM70.22 62.83C68.0327 63.0567 66.0494 63.17 64.27 63.17C63.4994 63.17 62.8817 62.9377 62.417 62.473C61.9524 62.0083 61.72 61.3907 61.72 60.62V56.54C61.72 55.69 61.958 55.027 62.434 54.551C62.9214 54.0637 63.59 53.82 64.44 53.82H67.84C68.69 53.82 69.353 54.0637 69.829 54.551C70.3164 55.027 70.56 55.69 70.56 56.54V59.685H64.695V60.365C64.695 60.535 64.7517 60.6767 64.865 60.79C64.9784 60.9033 65.12 60.96 65.29 60.96C66.412 60.96 68.0554 60.875 70.22 60.705V62.83ZM71.7434 60.45H74.8034V63H71.7434V60.45ZM71.7434 53.99H74.8034V56.54H71.7434V53.99ZM81.2641 55.35L80.9241 52.63V51.1H83.4741V52.63L83.1341 55.35H81.2641ZM84.4941 55.35L84.1541 52.63V51.1H86.7041V52.63L86.3641 55.35H84.4941ZM86.8807 51.1H90.1107L92.9157 56.88L95.7207 51.1H98.9507L94.4457 59.855V63H91.3857V59.855L86.8807 51.1ZM107.793 60.45C107.793 61.3 107.549 61.9687 107.062 62.456C106.586 62.932 105.923 63.17 105.073 63.17H101.163C100.313 63.17 99.644 62.932 99.1567 62.456C98.6807 61.9687 98.4427 61.3 98.4427 60.45V56.54C98.4427 55.69 98.6807 55.027 99.1567 54.551C99.644 54.0637 100.313 53.82 101.163 53.82H105.073C105.923 53.82 106.586 54.0637 107.062 54.551C107.549 55.027 107.793 55.69 107.793 56.54V60.45ZM104.818 56.795C104.818 56.3417 104.591 56.115 104.138 56.115H102.098C101.644 56.115 101.418 56.3417 101.418 56.795V60.195C101.418 60.6483 101.644 60.875 102.098 60.875H104.138C104.591 60.875 104.818 60.6483 104.818 60.195V56.795ZM113.486 60.705C114.086 60.705 114.766 60.5917 115.526 60.365V53.99H118.501V63H115.866L115.696 62.15C115.163 62.5013 114.613 62.762 114.047 62.932C113.491 63.0907 113.021 63.17 112.636 63.17H111.871C111.1 63.17 110.482 62.9377 110.018 62.473C109.553 62.0083 109.321 61.3907 109.321 60.62V53.99H112.296V60.11C112.296 60.28 112.352 60.4217 112.466 60.535C112.579 60.6483 112.721 60.705 112.891 60.705H113.486ZM125.38 56.455C124.666 56.455 123.929 56.625 123.17 56.965V63H120.195V53.99H122.83L123 55.095C123.974 54.245 124.994 53.82 126.06 53.82H126.825V56.455H125.38ZM143.651 63H140.421L136.341 55.86V63H133.281V51.1H136.511L140.591 58.24V51.1H143.651V63ZM149.099 60.79C149.699 60.79 150.379 60.6767 151.139 60.45V59.43H148.674C148.504 59.43 148.362 59.4867 148.249 59.6C148.135 59.7133 148.079 59.855 148.079 60.025V60.195C148.079 60.365 148.135 60.5067 148.249 60.62C148.362 60.7333 148.504 60.79 148.674 60.79H149.099ZM145.954 54.16C148.028 53.9333 149.898 53.82 151.564 53.82C152.334 53.82 152.952 54.0523 153.417 54.517C153.881 54.9817 154.114 55.5993 154.114 56.37V63H151.479L151.309 62.15C150.776 62.5013 150.226 62.762 149.66 62.932C149.104 63.0907 148.634 63.17 148.249 63.17H147.654C146.883 63.17 146.265 62.9377 145.801 62.473C145.336 62.0083 145.104 61.3907 145.104 60.62V59.855C145.104 59.0843 145.336 58.4667 145.801 58.002C146.265 57.5373 146.883 57.305 147.654 57.305H151.139V56.625C151.139 56.455 151.082 56.3133 150.969 56.2C150.855 56.0867 150.714 56.03 150.544 56.03C149.807 56.03 148.991 56.064 148.096 56.132C147.212 56.2 146.498 56.251 145.954 56.285V54.16ZM161.674 53.82C162.592 53.82 163.3 54.16 163.799 54.84C164.32 54.4887 164.881 54.2337 165.482 54.075C166.094 53.905 166.638 53.82 167.114 53.82H167.284C168.055 53.82 168.672 54.0523 169.137 54.517C169.602 54.9817 169.834 55.5993 169.834 56.37V63H166.859V56.88C166.859 56.71 166.802 56.5683 166.689 56.455C166.576 56.3417 166.434 56.285 166.264 56.285H166.179C165.669 56.285 165.017 56.3983 164.224 56.625V63H161.249V56.88C161.249 56.71 161.192 56.5683 161.079 56.455C160.966 56.3417 160.824 56.285 160.654 56.285H160.569C160.059 56.285 159.407 56.3983 158.614 56.625V63H155.639V53.99H158.274L158.444 54.84C158.977 54.4887 159.521 54.2337 160.076 54.075C160.643 53.905 161.119 53.82 161.504 53.82H161.674ZM174.846 55.945C174.392 55.945 174.166 56.1717 174.166 56.625V57.56H177.056V56.625C177.056 56.1717 176.829 55.945 176.376 55.945H174.846ZM179.691 62.83C177.503 63.0567 175.52 63.17 173.741 63.17C172.97 63.17 172.352 62.9377 171.888 62.473C171.423 62.0083 171.191 61.3907 171.191 60.62V56.54C171.191 55.69 171.429 55.027 171.905 54.551C172.392 54.0637 173.061 53.82 173.911 53.82H177.311C178.161 53.82 178.824 54.0637 179.3 54.551C179.787 55.027 180.031 55.69 180.031 56.54V59.685H174.166V60.365C174.166 60.535 174.222 60.6767 174.336 60.79C174.449 60.9033 174.591 60.96 174.761 60.96C175.883 60.96 177.526 60.875 179.691 60.705V62.83ZM181.554 55.35L181.214 52.63V51.1H183.764V52.63L183.424 55.35H181.554ZM184.784 55.35L184.444 52.63V51.1H186.994V52.63L186.654 55.35H184.784ZM188.021 60.45H191.081V62.83L189.891 64.7H188.361L189.041 63H188.021V60.45ZM30.535 76.455C29.821 76.455 29.0843 76.625 28.325 76.965V83H25.35V73.99H27.985L28.155 75.095C29.1297 74.245 30.1497 73.82 31.215 73.82H31.98V76.455H30.535ZM42.0173 80.45C42.0173 81.3 41.7736 81.9687 41.2863 82.456C40.8103 82.932 40.1473 83.17 39.2973 83.17H35.3873C34.5373 83.17 33.8686 82.932 33.3813 82.456C32.9053 81.9687 32.6673 81.3 32.6673 80.45V76.54C32.6673 75.69 32.9053 75.027 33.3813 74.551C33.8686 74.0637 34.5373 73.82 35.3873 73.82H39.2973C40.1473 73.82 40.8103 74.0637 41.2863 74.551C41.7736 75.027 42.0173 75.69 42.0173 76.54V80.45ZM39.0423 76.795C39.0423 76.3417 38.8156 76.115 38.3623 76.115H36.3223C35.869 76.115 35.6423 76.3417 35.6423 76.795V80.195C35.6423 80.6483 35.869 80.875 36.3223 80.875H38.3623C38.8156 80.875 39.0423 80.6483 39.0423 80.195V76.795ZM48.1353 83C47.376 83.1133 46.6506 83.17 45.9593 83.17C45.2793 83.17 44.707 82.9377 44.2423 82.473C43.7776 82.0083 43.5453 81.3907 43.5453 80.62V71.1H46.5203V80.195C46.5203 80.365 46.577 80.5067 46.6903 80.62C46.8036 80.7333 46.9453 80.79 47.1153 80.79H48.1353V83ZM52.8077 75.945C52.3543 75.945 52.1277 76.1717 52.1277 76.625V77.56H55.0177V76.625C55.0177 76.1717 54.791 75.945 54.3377 75.945H52.8077ZM57.6527 82.83C55.4653 83.0567 53.482 83.17 51.7027 83.17C50.932 83.17 50.3143 82.9377 49.8497 82.473C49.385 82.0083 49.1527 81.3907 49.1527 80.62V76.54C49.1527 75.69 49.3907 75.027 49.8667 74.551C50.354 74.0637 51.0227 73.82 51.8727 73.82H55.2727C56.1227 73.82 56.7857 74.0637 57.2617 74.551C57.749 75.027 57.9927 75.69 57.9927 76.54V79.685H52.1277V80.365C52.1277 80.535 52.1843 80.6767 52.2977 80.79C52.411 80.9033 52.5527 80.96 52.7227 80.96C53.8447 80.96 55.488 80.875 57.6527 80.705V82.83ZM59.176 80.45H62.236V83H59.176V80.45ZM59.176 73.99H62.236V76.54H59.176V73.99ZM68.6967 75.35L68.3567 72.63V71.1H70.9067V72.63L70.5667 75.35H68.6967ZM71.9267 75.35L71.5867 72.63V71.1H74.1367V72.63L73.7967 75.35H71.9267ZM78.7333 83H75.6733V71.1H85.1083V73.48H78.7333V76.285H83.7483V78.665H78.7333V83ZM90.6327 76.455C89.9187 76.455 89.182 76.625 88.4227 76.965V83H85.4477V73.99H88.0827L88.2527 75.095C89.2273 74.245 90.2473 73.82 91.3127 73.82H92.0777V76.455H90.6327ZM102.115 80.45C102.115 81.3 101.871 81.9687 101.384 82.456C100.908 82.932 100.245 83.17 99.395 83.17H95.485C94.635 83.17 93.9663 82.932 93.479 82.456C93.003 81.9687 92.765 81.3 92.765 80.45V76.54C92.765 75.69 93.003 75.027 93.479 74.551C93.9663 74.0637 94.635 73.82 95.485 73.82H99.395C100.245 73.82 100.908 74.0637 101.384 74.551C101.871 75.027 102.115 75.69 102.115 76.54V80.45ZM99.14 76.795C99.14 76.3417 98.9133 76.115 98.46 76.115H96.42C95.9666 76.115 95.74 76.3417 95.74 76.795V80.195C95.74 80.6483 95.9666 80.875 96.42 80.875H98.46C98.9133 80.875 99.14 80.6483 99.14 80.195V76.795ZM108.658 76.285C108.057 76.285 107.377 76.3983 106.618 76.625V83H103.643V73.99H106.278L106.448 74.84C106.981 74.4887 107.525 74.2337 108.08 74.075C108.647 73.905 109.123 73.82 109.508 73.82H110.273C111.044 73.82 111.661 74.0523 112.126 74.517C112.591 74.9817 112.823 75.5993 112.823 76.37V83H109.848V76.88C109.848 76.71 109.791 76.5683 109.678 76.455C109.565 76.3417 109.423 76.285 109.253 76.285H108.658ZM120.641 83C119.542 83.1133 118.465 83.17 117.411 83.17C116.64 83.17 116.023 82.9377 115.558 82.473C115.093 82.0083 114.861 81.3907 114.861 80.62V76.285H113.841V73.99H114.861L115.201 71.95H117.836V73.99H119.961V76.285H117.836V80.195C117.836 80.365 117.893 80.5067 118.006 80.62C118.119 80.7333 118.261 80.79 118.431 80.79H120.641V83ZM125.157 75.945C124.704 75.945 124.477 76.1717 124.477 76.625V77.56H127.367V76.625C127.367 76.1717 127.141 75.945 126.687 75.945H125.157ZM130.002 82.83C127.815 83.0567 125.832 83.17 124.052 83.17C123.282 83.17 122.664 82.9377 122.199 82.473C121.735 82.0083 121.502 81.3907 121.502 80.62V76.54C121.502 75.69 121.74 75.027 122.216 74.551C122.704 74.0637 123.372 73.82 124.222 73.82H127.622C128.472 73.82 129.135 74.0637 129.611 74.551C130.099 75.027 130.342 75.69 130.342 76.54V79.685H124.477V80.365C124.477 80.535 124.534 80.6767 124.647 80.79C124.761 80.9033 124.902 80.96 125.072 80.96C126.194 80.96 127.838 80.875 130.002 80.705V82.83ZM136.881 76.285C136.28 76.285 135.6 76.3983 134.841 76.625V83H131.866V73.99H134.501L134.671 74.84C135.203 74.4887 135.747 74.2337 136.303 74.075C136.869 73.905 137.345 73.82 137.731 73.82H138.496C139.266 73.82 139.884 74.0523 140.349 74.517C140.813 74.9817 141.046 75.5993 141.046 76.37V83H138.071V76.88C138.071 76.71 138.014 76.5683 137.901 76.455C137.787 76.3417 137.646 76.285 137.476 76.285H136.881ZM148.949 83L148.779 82.15C148.246 82.5013 147.696 82.762 147.13 82.932C146.574 83.0907 146.104 83.17 145.719 83.17H144.954C144.183 83.17 143.565 82.9377 143.101 82.473C142.636 82.0083 142.404 81.3907 142.404 80.62V76.71C142.404 75.86 142.642 75.197 143.118 74.721C143.605 74.2337 144.274 73.99 145.124 73.99H148.609V71.1H151.584V83H148.949ZM146.569 80.705C147.169 80.705 147.849 80.5917 148.609 80.365V76.285H146.059C145.605 76.285 145.379 76.5117 145.379 76.965V80.11C145.379 80.28 145.435 80.4217 145.549 80.535C145.662 80.6483 145.804 80.705 145.974 80.705H146.569ZM165.178 71.1C166.459 71.1 167.428 71.4343 168.085 72.103C168.754 72.7603 169.088 73.7293 169.088 75.01V79.09C169.088 80.3707 168.754 81.3453 168.085 82.014C167.428 82.6713 166.459 83 165.178 83H158.548V71.1H165.178ZM166.028 75.01C166.028 73.99 165.518 73.48 164.498 73.48H161.608V80.62H164.498C165.518 80.62 166.028 80.11 166.028 79.09V75.01ZM174.099 75.945C173.645 75.945 173.419 76.1717 173.419 76.625V77.56H176.309V76.625C176.309 76.1717 176.082 75.945 175.629 75.945H174.099ZM178.944 82.83C176.756 83.0567 174.773 83.17 172.994 83.17C172.223 83.17 171.605 82.9377 171.141 82.473C170.676 82.0083 170.444 81.3907 170.444 80.62V76.54C170.444 75.69 170.682 75.027 171.158 74.551C171.645 74.0637 172.314 73.82 173.164 73.82H176.564C177.414 73.82 178.077 74.0637 178.553 74.551C179.04 75.027 179.284 75.69 179.284 76.54V79.685H173.419V80.365C173.419 80.535 173.475 80.6767 173.589 80.79C173.702 80.9033 173.844 80.96 174.014 80.96C175.136 80.96 176.779 80.875 178.944 80.705V82.83ZM186.676 73.99H189.821L186.421 83H183.021L179.621 73.99H182.766L184.721 80.11L186.676 73.99ZM193.821 75.945C193.368 75.945 193.141 76.1717 193.141 76.625V77.56H196.031V76.625C196.031 76.1717 195.805 75.945 195.351 75.945H193.821ZM198.666 82.83C196.479 83.0567 194.496 83.17 192.716 83.17C191.946 83.17 191.328 82.9377 190.863 82.473C190.399 82.0083 190.166 81.3907 190.166 80.62V76.54C190.166 75.69 190.404 75.027 190.88 74.551C191.368 74.0637 192.036 73.82 192.886 73.82H196.286C197.136 73.82 197.799 74.0637 198.275 74.551C198.763 75.027 199.006 75.69 199.006 76.54V79.685H193.141V80.365C193.141 80.535 193.198 80.6767 193.311 80.79C193.425 80.9033 193.566 80.96 193.736 80.96C194.858 80.96 196.502 80.875 198.666 80.705V82.83ZM205.12 83C204.36 83.1133 203.635 83.17 202.944 83.17C202.264 83.17 201.691 82.9377 201.227 82.473C200.762 82.0083 200.53 81.3907 200.53 80.62V71.1H203.505V80.195C203.505 80.365 203.561 80.5067 203.675 80.62C203.788 80.7333 203.93 80.79 204.1 80.79H205.12V83ZM215.487 80.45C215.487 81.3 215.243 81.9687 214.756 82.456C214.28 82.932 213.617 83.17 212.767 83.17H208.857C208.007 83.17 207.338 82.932 206.851 82.456C206.375 81.9687 206.137 81.3 206.137 80.45V76.54C206.137 75.69 206.375 75.027 206.851 74.551C207.338 74.0637 208.007 73.82 208.857 73.82H212.767C213.617 73.82 214.28 74.0637 214.756 74.551C215.243 75.027 215.487 75.69 215.487 76.54V80.45ZM212.512 76.795C212.512 76.3417 212.285 76.115 211.832 76.115H209.792C209.339 76.115 209.112 76.3417 209.112 76.795V80.195C209.112 80.6483 209.339 80.875 209.792 80.875H211.832C212.285 80.875 212.512 80.6483 212.512 80.195V76.795ZM222.03 76.285C221.429 76.285 220.749 76.3983 219.99 76.625V80.705H222.54C222.993 80.705 223.22 80.4783 223.22 80.025V76.88C223.22 76.71 223.163 76.5683 223.05 76.455C222.937 76.3417 222.795 76.285 222.625 76.285H222.03ZM219.99 83V85.89H217.015V73.99H219.65L219.82 74.84C220.353 74.4887 220.897 74.2337 221.452 74.075C222.019 73.905 222.495 73.82 222.88 73.82H223.645C224.416 73.82 225.033 74.0523 225.498 74.517C225.963 74.9817 226.195 75.5993 226.195 76.37V80.28C226.195 81.13 225.951 81.7987 225.464 82.286C224.988 82.762 224.325 83 223.475 83H219.99ZM231.208 75.945C230.755 75.945 230.528 76.1717 230.528 76.625V77.56H233.418V76.625C233.418 76.1717 233.191 75.945 232.738 75.945H231.208ZM236.053 82.83C233.866 83.0567 231.882 83.17 230.103 83.17C229.332 83.17 228.715 82.9377 228.25 82.473C227.785 82.0083 227.553 81.3907 227.553 80.62V76.54C227.553 75.69 227.791 75.027 228.267 74.551C228.754 74.0637 229.423 73.82 230.273 73.82H233.673C234.523 73.82 235.186 74.0637 235.662 74.551C236.149 75.027 236.393 75.69 236.393 76.54V79.685H230.528V80.365C230.528 80.535 230.585 80.6767 230.698 80.79C230.811 80.9033 230.953 80.96 231.123 80.96C232.245 80.96 233.888 80.875 236.053 80.705V82.83ZM243.101 76.455C242.387 76.455 241.651 76.625 240.891 76.965V83H237.916V73.99H240.551L240.721 75.095C241.696 74.245 242.716 73.82 243.781 73.82H244.546V76.455H243.101ZM245.736 75.35L245.396 72.63V71.1H247.946V72.63L247.606 75.35H245.736ZM248.966 75.35L248.626 72.63V71.1H251.176V72.63L250.836 75.35H248.966ZM252.202 80.45H255.262V82.83L254.072 84.7H252.542L253.222 83H252.202V80.45ZM30.365 96.285C29.7643 96.285 29.0843 96.3983 28.325 96.625V100.705H30.875C31.3283 100.705 31.555 100.478 31.555 100.025V96.88C31.555 96.71 31.4983 96.5683 31.385 96.455C31.2717 96.3417 31.13 96.285 30.96 96.285H30.365ZM28.325 103V105.89H25.35V93.99H27.985L28.155 94.84C28.6877 94.4887 29.2317 94.2337 29.787 94.075C30.3537 93.905 30.8297 93.82 31.215 93.82H31.98C32.7507 93.82 33.3683 94.0523 33.833 94.517C34.2977 94.9817 34.53 95.5993 34.53 96.37V100.28C34.53 101.13 34.2863 101.799 33.799 102.286C33.323 102.762 32.66 103 31.81 103H28.325ZM39.628 100.79C40.2287 100.79 40.9087 100.677 41.668 100.45V99.43H39.203C39.033 99.43 38.8913 99.4867 38.778 99.6C38.6647 99.7133 38.608 99.855 38.608 100.025V100.195C38.608 100.365 38.6647 100.507 38.778 100.62C38.8913 100.733 39.033 100.79 39.203 100.79H39.628ZM36.483 94.16C38.557 93.9333 40.427 93.82 42.093 93.82C42.8637 93.82 43.4813 94.0523 43.946 94.517C44.4107 94.9817 44.643 95.5993 44.643 96.37V103H42.008L41.838 102.15C41.3053 102.501 40.7557 102.762 40.189 102.932C39.6337 103.091 39.1633 103.17 38.778 103.17H38.183C37.4123 103.17 36.7947 102.938 36.33 102.473C35.8653 102.008 35.633 101.391 35.633 100.62V99.855C35.633 99.0843 35.8653 98.4667 36.33 98.002C36.7947 97.5373 37.4123 97.305 38.183 97.305H41.668V96.625C41.668 96.455 41.6113 96.3133 41.498 96.2C41.3847 96.0867 41.243 96.03 41.073 96.03C40.3363 96.03 39.5203 96.064 38.625 96.132C37.741 96.2 37.027 96.251 36.483 96.285V94.16ZM45.8284 100.62C48.129 100.79 49.9424 100.875 51.2684 100.875C51.4384 100.875 51.58 100.818 51.6934 100.705C51.8067 100.592 51.8634 100.45 51.8634 100.28V99.685H48.2084C47.4377 99.685 46.82 99.4527 46.3554 98.988C45.8907 98.5233 45.6584 97.9057 45.6584 97.135V96.54C45.6584 95.7693 45.8907 95.1517 46.3554 94.687C46.82 94.2223 47.4377 93.99 48.2084 93.99H53.9884V96.2H49.2284C49.0584 96.2 48.9167 96.2567 48.8034 96.37C48.69 96.4833 48.6334 96.625 48.6334 96.795C48.6334 96.965 48.69 97.1067 48.8034 97.22C48.9167 97.3333 49.0584 97.39 49.2284 97.39H52.2884C53.059 97.39 53.6767 97.6223 54.1414 98.087C54.606 98.5517 54.8384 99.1693 54.8384 99.94V100.62C54.8384 101.391 54.606 102.008 54.1414 102.473C53.6767 102.938 53.059 103.17 52.2884 103.17C50.2824 103.17 48.129 103.057 45.8284 102.83V100.62ZM55.6897 100.62C57.9904 100.79 59.8037 100.875 61.1297 100.875C61.2997 100.875 61.4414 100.818 61.5547 100.705C61.668 100.592 61.7247 100.45 61.7247 100.28V99.685H58.0697C57.299 99.685 56.6814 99.4527 56.2167 98.988C55.752 98.5233 55.5197 97.9057 55.5197 97.135V96.54C55.5197 95.7693 55.752 95.1517 56.2167 94.687C56.6814 94.2223 57.299 93.99 58.0697 93.99H63.8497V96.2H59.0897C58.9197 96.2 58.778 96.2567 58.6647 96.37C58.5514 96.4833 58.4947 96.625 58.4947 96.795C58.4947 96.965 58.5514 97.1067 58.6647 97.22C58.778 97.3333 58.9197 97.39 59.0897 97.39H62.1497C62.9204 97.39 63.538 97.6223 64.0027 98.087C64.4674 98.5517 64.6997 99.1693 64.6997 99.94V100.62C64.6997 101.391 64.4674 102.008 64.0027 102.473C63.538 102.938 62.9204 103.17 62.1497 103.17C60.1437 103.17 57.9904 103.057 55.6897 102.83V100.62ZM69.465 94.33V103H66.49V96.625H65.215V94.33H69.465ZM66.49 90.93H69.465V93.31H66.49V90.93ZM80.3503 100.45C80.3503 101.3 80.1066 101.969 79.6193 102.456C79.1433 102.932 78.4803 103.17 77.6303 103.17H73.7203C72.8703 103.17 72.2016 102.932 71.7143 102.456C71.2383 101.969 71.0003 101.3 71.0003 100.45V96.54C71.0003 95.69 71.2383 95.027 71.7143 94.551C72.2016 94.0637 72.8703 93.82 73.7203 93.82H77.6303C78.4803 93.82 79.1433 94.0637 79.6193 94.551C80.1066 95.027 80.3503 95.69 80.3503 96.54V100.45ZM77.3753 96.795C77.3753 96.3417 77.1486 96.115 76.6953 96.115H74.6553C74.202 96.115 73.9753 96.3417 73.9753 96.795V100.195C73.9753 100.648 74.202 100.875 74.6553 100.875H76.6953C77.1486 100.875 77.3753 100.648 77.3753 100.195V96.795ZM86.8933 96.285C86.2927 96.285 85.6127 96.3983 84.8533 96.625V103H81.8783V93.99H84.5133L84.6833 94.84C85.216 94.4887 85.76 94.2337 86.3153 94.075C86.882 93.905 87.358 93.82 87.7433 93.82H88.5083C89.279 93.82 89.8967 94.0523 90.3613 94.517C90.826 94.9817 91.0583 95.5993 91.0583 96.37V103H88.0833V96.88C88.0833 96.71 88.0267 96.5683 87.9133 96.455C87.8 96.3417 87.6583 96.285 87.4883 96.285H86.8933ZM92.2463 100.62C94.547 100.79 96.3603 100.875 97.6863 100.875C97.8563 100.875 97.998 100.818 98.1113 100.705C98.2247 100.592 98.2813 100.45 98.2813 100.28V99.685H94.6263C93.8557 99.685 93.238 99.4527 92.7733 98.988C92.3087 98.5233 92.0763 97.9057 92.0763 97.135V96.54C92.0763 95.7693 92.3087 95.1517 92.7733 94.687C93.238 94.2223 93.8557 93.99 94.6263 93.99H100.406V96.2H95.6463C95.4763 96.2 95.3347 96.2567 95.2213 96.37C95.108 96.4833 95.0513 96.625 95.0513 96.795C95.0513 96.965 95.108 97.1067 95.2213 97.22C95.3347 97.3333 95.4763 97.39 95.6463 97.39H98.7063C99.477 97.39 100.095 97.6223 100.559 98.087C101.024 98.5517 101.256 99.1693 101.256 99.94V100.62C101.256 101.391 101.024 102.008 100.559 102.473C100.095 102.938 99.477 103.17 98.7063 103.17C96.7003 103.17 94.547 103.057 92.2463 102.83V100.62ZM102.108 100.45H105.168V103H102.108V100.45ZM102.108 93.99H105.168V96.54H102.108V93.99ZM111.798 89.4H116.898V91.78H114.858V104.19H116.898V106.57H111.798V89.4ZM117.754 95.35L117.414 92.63V91.1H119.964V92.63L119.624 95.35H117.754ZM120.984 95.35L120.644 92.63V91.1H123.194V92.63L122.854 95.35H120.984ZM134.931 102.745C132.279 103.028 129.842 103.17 127.621 103.17C126.51 103.17 125.694 102.909 125.173 102.388C124.652 101.867 124.391 101.051 124.391 99.94V94.5C124.391 93.31 124.657 92.4487 125.19 91.916C125.734 91.372 126.601 91.1 127.791 91.1H133.911V93.48H128.471C127.791 93.48 127.451 93.82 127.451 94.5V99.94C127.451 100.201 127.525 100.41 127.672 100.569C127.831 100.716 128.04 100.79 128.301 100.79C129.604 100.79 130.794 100.762 131.871 100.705V98.24H129.661V96.2H134.931V102.745ZM140.034 100.79C140.635 100.79 141.315 100.677 142.074 100.45V99.43H139.609C139.439 99.43 139.298 99.4867 139.184 99.6C139.071 99.7133 139.014 99.855 139.014 100.025V100.195C139.014 100.365 139.071 100.507 139.184 100.62C139.298 100.733 139.439 100.79 139.609 100.79H140.034ZM136.889 94.16C138.963 93.9333 140.833 93.82 142.499 93.82C143.27 93.82 143.888 94.0523 144.352 94.517C144.817 94.9817 145.049 95.5993 145.049 96.37V103H142.414L142.244 102.15C141.712 102.501 141.162 102.762 140.595 102.932C140.04 103.091 139.57 103.17 139.184 103.17H138.589C137.819 103.17 137.201 102.938 136.736 102.473C136.272 102.008 136.039 101.391 136.039 100.62V99.855C136.039 99.0843 136.272 98.4667 136.736 98.002C137.201 97.5373 137.819 97.305 138.589 97.305H142.074V96.625C142.074 96.455 142.018 96.3133 141.904 96.2C141.791 96.0867 141.649 96.03 141.479 96.03C140.743 96.03 139.927 96.064 139.031 96.132C138.147 96.2 137.433 96.251 136.889 96.285V94.16ZM152.61 93.82C153.528 93.82 154.236 94.16 154.735 94.84C155.256 94.4887 155.817 94.2337 156.418 94.075C157.03 93.905 157.574 93.82 158.05 93.82H158.22C158.99 93.82 159.608 94.0523 160.073 94.517C160.537 94.9817 160.77 95.5993 160.77 96.37V103H157.795V96.88C157.795 96.71 157.738 96.5683 157.625 96.455C157.511 96.3417 157.37 96.285 157.2 96.285H157.115C156.605 96.285 155.953 96.3983 155.16 96.625V103H152.185V96.88C152.185 96.71 152.128 96.5683 152.015 96.455C151.901 96.3417 151.76 96.285 151.59 96.285H151.505C150.995 96.285 150.343 96.3983 149.55 96.625V103H146.575V93.99H149.21L149.38 94.84C149.912 94.4887 150.456 94.2337 151.012 94.075C151.578 93.905 152.054 93.82 152.44 93.82H152.61ZM165.781 95.945C165.328 95.945 165.101 96.1717 165.101 96.625V97.56H167.991V96.625C167.991 96.1717 167.765 95.945 167.311 95.945H165.781ZM170.626 102.83C168.439 103.057 166.456 103.17 164.676 103.17C163.906 103.17 163.288 102.938 162.823 102.473C162.359 102.008 162.126 101.391 162.126 100.62V96.54C162.126 95.69 162.364 95.027 162.84 94.551C163.328 94.0637 163.996 93.82 164.846 93.82H168.246C169.096 93.82 169.759 94.0637 170.235 94.551C170.723 95.027 170.966 95.69 170.966 96.54V99.685H165.101V100.365C165.101 100.535 165.158 100.677 165.271 100.79C165.385 100.903 165.526 100.96 165.696 100.96C166.818 100.96 168.462 100.875 170.626 100.705V102.83ZM184.386 91.1C185.667 91.1 186.636 91.4343 187.293 92.103C187.962 92.7603 188.296 93.7293 188.296 95.01V99.09C188.296 100.371 187.962 101.345 187.293 102.014C186.636 102.671 185.667 103 184.386 103H177.756V91.1H184.386ZM185.236 95.01C185.236 93.99 184.726 93.48 183.706 93.48H180.816V100.62H183.706C184.726 100.62 185.236 100.11 185.236 99.09V95.01ZM193.307 95.945C192.853 95.945 192.627 96.1717 192.627 96.625V97.56H195.517V96.625C195.517 96.1717 195.29 95.945 194.837 95.945H193.307ZM198.152 102.83C195.964 103.057 193.981 103.17 192.202 103.17C191.431 103.17 190.813 102.938 190.349 102.473C189.884 102.008 189.652 101.391 189.652 100.62V96.54C189.652 95.69 189.89 95.027 190.366 94.551C190.853 94.0637 191.522 93.82 192.372 93.82H195.772C196.622 93.82 197.285 94.0637 197.761 94.551C198.248 95.027 198.492 95.69 198.492 96.54V99.685H192.627V100.365C192.627 100.535 192.683 100.677 192.797 100.79C192.91 100.903 193.052 100.96 193.222 100.96C194.344 100.96 195.987 100.875 198.152 100.705V102.83ZM199.675 100.62C201.976 100.79 203.789 100.875 205.115 100.875C205.285 100.875 205.427 100.818 205.54 100.705C205.653 100.592 205.71 100.45 205.71 100.28V99.685H202.055C201.284 99.685 200.667 99.4527 200.202 98.988C199.737 98.5233 199.505 97.9057 199.505 97.135V96.54C199.505 95.7693 199.737 95.1517 200.202 94.687C200.667 94.2223 201.284 93.99 202.055 93.99H207.835V96.2H203.075C202.905 96.2 202.763 96.2567 202.65 96.37C202.537 96.4833 202.48 96.625 202.48 96.795C202.48 96.965 202.537 97.1067 202.65 97.22C202.763 97.3333 202.905 97.39 203.075 97.39H206.135C206.906 97.39 207.523 97.6223 207.988 98.087C208.453 98.5517 208.685 99.1693 208.685 99.94V100.62C208.685 101.391 208.453 102.008 207.988 102.473C207.523 102.938 206.906 103.17 206.135 103.17C204.129 103.17 201.976 103.057 199.675 102.83V100.62ZM213.45 94.33V103H210.475V96.625H209.2V94.33H213.45ZM210.475 90.93H213.45V93.31H210.475V90.93ZM221.021 102.32C219.921 102.547 218.958 102.66 218.131 102.66H217.536C216.765 102.66 216.147 102.428 215.683 101.963C215.218 101.498 214.986 100.881 214.986 100.11V96.71C214.986 95.86 215.224 95.197 215.7 94.721C216.187 94.2337 216.856 93.99 217.706 93.99H223.996V103.51C223.996 104.281 223.763 104.898 223.299 105.363C222.834 105.828 222.216 106.06 221.446 106.06C219.666 106.06 217.683 105.947 215.496 105.72V103.51C217.66 103.68 219.304 103.765 220.426 103.765C220.596 103.765 220.737 103.708 220.851 103.595C220.964 103.482 221.021 103.34 221.021 103.17V102.32ZM218.981 100.365C219.695 100.365 220.375 100.308 221.021 100.195V96.285H218.641C218.187 96.285 217.961 96.5117 217.961 96.965V99.77C217.961 99.94 218.017 100.082 218.131 100.195C218.244 100.308 218.386 100.365 218.556 100.365H218.981ZM230.713 96.285C230.112 96.285 229.432 96.3983 228.673 96.625V103H225.698V93.99H228.333L228.503 94.84C229.035 94.4887 229.579 94.2337 230.135 94.075C230.701 93.905 231.177 93.82 231.563 93.82H232.328C233.098 93.82 233.716 94.0523 234.181 94.517C234.645 94.9817 234.878 95.5993 234.878 96.37V103H231.903V96.88C231.903 96.71 231.846 96.5683 231.733 96.455C231.619 96.3417 231.478 96.285 231.308 96.285H230.713ZM236.406 95.35L236.066 92.63V91.1H238.616V92.63L238.276 95.35H236.406ZM239.636 95.35L239.296 92.63V91.1H241.846V92.63L241.506 95.35H239.636ZM242.872 100.45H245.932V102.83L244.742 104.7H243.212L243.892 103H242.872V100.45ZM252.393 95.35L252.053 92.63V91.1H254.603V92.63L254.263 95.35H252.393ZM255.623 95.35L255.283 92.63V91.1H257.833V92.63L257.493 95.35H255.623ZM269.57 96.37L267.19 100.62H264.81L262.43 96.37V103H259.37V91.1H262.6L266 97.39L269.4 91.1H272.63V103H269.57V96.37ZM278.671 100.705C279.272 100.705 279.952 100.592 280.711 100.365V93.99H283.686V103H281.051L280.881 102.15C280.349 102.501 279.799 102.762 279.232 102.932C278.677 103.091 278.207 103.17 277.821 103.17H277.056C276.286 103.17 275.668 102.938 275.203 102.473C274.739 102.008 274.506 101.391 274.506 100.62V93.99H277.481V100.11C277.481 100.28 277.538 100.422 277.651 100.535C277.765 100.648 277.906 100.705 278.076 100.705H278.671ZM285.04 100.62C287.341 100.79 289.154 100.875 290.48 100.875C290.65 100.875 290.792 100.818 290.905 100.705C291.019 100.592 291.075 100.45 291.075 100.28V99.685H287.42C286.65 99.685 286.032 99.4527 285.567 98.988C285.103 98.5233 284.87 97.9057 284.87 97.135V96.54C284.87 95.7693 285.103 95.1517 285.567 94.687C286.032 94.2223 286.65 93.99 287.42 93.99H293.2V96.2H288.44C288.27 96.2 288.129 96.2567 288.015 96.37C287.902 96.4833 287.845 96.625 287.845 96.795C287.845 96.965 287.902 97.1067 288.015 97.22C288.129 97.3333 288.27 97.39 288.44 97.39H291.5C292.271 97.39 292.889 97.6223 293.353 98.087C293.818 98.5517 294.05 99.1693 294.05 99.94V100.62C294.05 101.391 293.818 102.008 293.353 102.473C292.889 102.938 292.271 103.17 291.5 103.17C289.494 103.17 287.341 103.057 285.04 102.83V100.62ZM298.816 94.33V103H295.841V96.625H294.566V94.33H298.816ZM295.841 90.93H298.816V93.31H295.841V90.93ZM308.511 102.83C306.392 103.057 304.522 103.17 302.901 103.17C302.13 103.17 301.513 102.938 301.048 102.473C300.583 102.008 300.351 101.391 300.351 100.62V96.71C300.351 95.86 300.589 95.197 301.065 94.721C301.552 94.2337 302.221 93.99 303.071 93.99H308.511V96.285H304.006C303.553 96.285 303.326 96.5117 303.326 96.965V100.28C303.326 100.45 303.383 100.592 303.496 100.705C303.609 100.818 303.751 100.875 303.921 100.875C304.941 100.875 306.471 100.79 308.511 100.62V102.83ZM309.868 95.35L309.528 92.63V91.1H312.078V92.63L311.738 95.35H309.868ZM313.098 95.35L312.758 92.63V91.1H315.308V92.63L314.968 95.35H313.098ZM316.334 100.45H319.394V102.83L318.204 104.7H316.674L317.354 103H316.334V100.45ZM325.855 95.35L325.515 92.63V91.1H328.065V92.63L327.725 95.35H325.855ZM329.085 95.35L328.745 92.63V91.1H331.295V92.63L330.955 95.35H329.085ZM342.012 102.83C339.484 103.057 337.388 103.17 335.722 103.17C334.611 103.17 333.795 102.909 333.274 102.388C332.752 101.867 332.492 101.051 332.492 99.94V94.5C332.492 93.31 332.758 92.4487 333.291 91.916C333.835 91.372 334.702 91.1 335.892 91.1H342.012V93.48H336.572C335.892 93.48 335.552 93.82 335.552 94.5V99.94C335.552 100.201 335.625 100.41 335.773 100.569C335.931 100.716 336.13 100.79 336.368 100.79C336.606 100.79 336.866 100.79 337.15 100.79C337.433 100.779 337.728 100.767 338.034 100.756C338.34 100.745 338.646 100.733 338.952 100.722C339.269 100.711 339.671 100.688 340.159 100.654C340.657 100.62 341.275 100.58 342.012 100.535V102.83ZM348.389 96.455C347.675 96.455 346.938 96.625 346.179 96.965V103H343.204V93.99H345.839L346.009 95.095C346.983 94.245 348.003 93.82 349.069 93.82H349.834V96.455H348.389ZM354.176 95.945C353.722 95.945 353.496 96.1717 353.496 96.625V97.56H356.386V96.625C356.386 96.1717 356.159 95.945 355.706 95.945H354.176ZM359.021 102.83C356.833 103.057 354.85 103.17 353.071 103.17C352.3 103.17 351.682 102.938 351.218 102.473C350.753 102.008 350.521 101.391 350.521 100.62V96.54C350.521 95.69 350.759 95.027 351.235 94.551C351.722 94.0637 352.391 93.82 353.241 93.82H356.641C357.491 93.82 358.154 94.0637 358.63 94.551C359.117 95.027 359.361 95.69 359.361 96.54V99.685H353.496V100.365C353.496 100.535 353.552 100.677 353.666 100.79C353.779 100.903 353.921 100.96 354.091 100.96C355.213 100.96 356.856 100.875 359.021 100.705V102.83ZM364.454 100.79C365.055 100.79 365.735 100.677 366.494 100.45V99.43H364.029C363.859 99.43 363.718 99.4867 363.604 99.6C363.491 99.7133 363.434 99.855 363.434 100.025V100.195C363.434 100.365 363.491 100.507 363.604 100.62C363.718 100.733 363.859 100.79 364.029 100.79H364.454ZM361.309 94.16C363.383 93.9333 365.253 93.82 366.919 93.82C367.69 93.82 368.308 94.0523 368.772 94.517C369.237 94.9817 369.469 95.5993 369.469 96.37V103H366.834L366.664 102.15C366.132 102.501 365.582 102.762 365.015 102.932C364.46 103.091 363.99 103.17 363.604 103.17H363.009C362.239 103.17 361.621 102.938 361.156 102.473C360.692 102.008 360.459 101.391 360.459 100.62V99.855C360.459 99.0843 360.692 98.4667 361.156 98.002C361.621 97.5373 362.239 97.305 363.009 97.305H366.494V96.625C366.494 96.455 366.438 96.3133 366.324 96.2C366.211 96.0867 366.069 96.03 365.899 96.03C365.163 96.03 364.347 96.064 363.451 96.132C362.567 96.2 361.853 96.251 361.309 96.285V94.16ZM377.285 103C376.185 103.113 375.109 103.17 374.055 103.17C373.284 103.17 372.666 102.938 372.202 102.473C371.737 102.008 371.505 101.391 371.505 100.62V96.285H370.485V93.99H371.505L371.845 91.95H374.48V93.99H376.605V96.285H374.48V100.195C374.48 100.365 374.536 100.507 374.65 100.62C374.763 100.733 374.905 100.79 375.075 100.79H377.285V103ZM381.89 94.33V103H378.915V96.625H377.64V94.33H381.89ZM378.915 90.93H381.89V93.31H378.915V90.93ZM389.63 93.99H392.775L389.375 103H385.975L382.575 93.99H385.72L387.675 100.11L389.63 93.99ZM397.196 94.33V103H394.221V96.625H392.946V94.33H397.196ZM394.221 90.93H397.196V93.31H394.221V90.93ZM405.192 103C404.092 103.113 403.016 103.17 401.962 103.17C401.191 103.17 400.573 102.938 400.109 102.473C399.644 102.008 399.412 101.391 399.412 100.62V96.285H398.392V93.99H399.412L399.752 91.95H402.387V93.99H404.512V96.285H402.387V100.195C402.387 100.365 402.443 100.507 402.557 100.62C402.67 100.733 402.812 100.79 402.982 100.79H405.192V103ZM408.437 106.06C407.836 106.06 407.1 106.003 406.227 105.89V103.68H407.757C408.188 103.68 408.465 103.561 408.59 103.323C408.726 103.085 408.703 102.751 408.522 102.32L405.037 93.99H408.182L410.307 99.77L412.092 93.99H415.237L411.837 103.34C411.508 104.235 411.083 104.91 410.562 105.363C410.041 105.828 409.332 106.06 408.437 106.06ZM415.752 95.35L415.412 92.63V91.1H417.962V92.63L417.622 95.35H415.752ZM418.982 95.35L418.642 92.63V91.1H421.192V92.63L420.852 95.35H418.982ZM426.809 106.57H421.709V104.19H423.749V91.78H421.709V89.4H426.809V106.57ZM428.345 100.45H431.405V102.83L430.215 104.7H428.685L429.365 103H428.345V100.45ZM31.385 113.82C32.303 113.82 33.0113 114.16 33.51 114.84C34.0313 114.489 34.5923 114.234 35.193 114.075C35.805 113.905 36.349 113.82 36.825 113.82H36.995C37.7657 113.82 38.3833 114.052 38.848 114.517C39.3127 114.982 39.545 115.599 39.545 116.37V123H36.57V116.88C36.57 116.71 36.5133 116.568 36.4 116.455C36.2867 116.342 36.145 116.285 35.975 116.285H35.89C35.38 116.285 34.7283 116.398 33.935 116.625V123H30.96V116.88C30.96 116.71 30.9033 116.568 30.79 116.455C30.6767 116.342 30.535 116.285 30.365 116.285H30.28C29.77 116.285 29.1183 116.398 28.325 116.625V123H25.35V113.99H27.985L28.155 114.84C28.6877 114.489 29.2317 114.234 29.787 114.075C30.3537 113.905 30.8297 113.82 31.215 113.82H31.385ZM44.8117 114.33V123H41.8367V116.625H40.5617V114.33H44.8117ZM41.8367 110.93H44.8117V113.31H41.8367V110.93ZM51.532 116.285C50.9313 116.285 50.2513 116.398 49.492 116.625V123H46.517V113.99H49.152L49.322 114.84C49.8547 114.489 50.3987 114.234 50.954 114.075C51.5207 113.905 51.9967 113.82 52.382 113.82H53.147C53.9177 113.82 54.5353 114.052 55 114.517C55.4647 114.982 55.697 115.599 55.697 116.37V123H52.722V116.88C52.722 116.71 52.6653 116.568 52.552 116.455C52.4387 116.342 52.297 116.285 52.127 116.285H51.532ZM63.6 123L63.43 122.15C62.8973 122.501 62.3477 122.762 61.781 122.932C61.2257 123.091 60.7553 123.17 60.37 123.17H59.605C58.8343 123.17 58.2167 122.938 57.752 122.473C57.2873 122.008 57.055 121.391 57.055 120.62V116.71C57.055 115.86 57.293 115.197 57.769 114.721C58.2563 114.234 58.925 113.99 59.775 113.99H63.26V111.1H66.235V123H63.6ZM61.22 120.705C61.8207 120.705 62.5007 120.592 63.26 120.365V116.285H60.71C60.2567 116.285 60.03 116.512 60.03 116.965V120.11C60.03 120.28 60.0867 120.422 60.2 120.535C60.3133 120.648 60.455 120.705 60.625 120.705H61.22ZM67.593 120.62C69.8937 120.79 71.707 120.875 73.033 120.875C73.203 120.875 73.3447 120.818 73.458 120.705C73.5713 120.592 73.628 120.45 73.628 120.28V119.685H69.973C69.2023 119.685 68.5847 119.453 68.12 118.988C67.6553 118.523 67.423 117.906 67.423 117.135V116.54C67.423 115.769 67.6553 115.152 68.12 114.687C68.5847 114.222 69.2023 113.99 69.973 113.99H75.753V116.2H70.993C70.823 116.2 70.6813 116.257 70.568 116.37C70.4547 116.483 70.398 116.625 70.398 116.795C70.398 116.965 70.4547 117.107 70.568 117.22C70.6813 117.333 70.823 117.39 70.993 117.39H74.053C74.8237 117.39 75.4413 117.622 75.906 118.087C76.3707 118.552 76.603 119.169 76.603 119.94V120.62C76.603 121.391 76.3707 122.008 75.906 122.473C75.4413 122.938 74.8237 123.17 74.053 123.17C72.047 123.17 69.8937 123.057 67.593 122.83V120.62ZM81.2793 115.945C80.826 115.945 80.5993 116.172 80.5993 116.625V117.56H83.4893V116.625C83.4893 116.172 83.2627 115.945 82.8093 115.945H81.2793ZM86.1243 122.83C83.937 123.057 81.9537 123.17 80.1743 123.17C79.4037 123.17 78.786 122.938 78.3213 122.473C77.8567 122.008 77.6243 121.391 77.6243 120.62V116.54C77.6243 115.69 77.8623 115.027 78.3383 114.551C78.8257 114.064 79.4943 113.82 80.3443 113.82H83.7443C84.5943 113.82 85.2573 114.064 85.7333 114.551C86.2207 115.027 86.4643 115.69 86.4643 116.54V119.685H80.5993V120.365C80.5993 120.535 80.656 120.677 80.7693 120.79C80.8827 120.903 81.0243 120.96 81.1943 120.96C82.3163 120.96 83.9597 120.875 86.1243 120.705V122.83ZM94.2777 123C93.1784 123.113 92.1017 123.17 91.0477 123.17C90.277 123.17 89.6594 122.938 89.1947 122.473C88.73 122.008 88.4977 121.391 88.4977 120.62V116.285H87.4777V113.99H88.4977L88.8377 111.95H91.4727V113.99H93.5977V116.285H91.4727V120.195C91.4727 120.365 91.5294 120.507 91.6427 120.62C91.756 120.733 91.8977 120.79 92.0677 120.79H94.2777V123ZM95.135 120.45H98.195V123H95.135V120.45ZM95.135 113.99H98.195V116.54H95.135V113.99ZM104.656 115.35L104.316 112.63V111.1H106.866V112.63L106.526 115.35H104.656ZM107.886 115.35L107.546 112.63V111.1H110.096V112.63L109.756 115.35H107.886ZM112.745 123H109.43L113.935 111.1H117.335L121.84 123H118.525L117.76 120.875H113.51L112.745 123ZM114.275 118.665H116.995L115.635 114.67L114.275 118.665ZM127.109 123C126.35 123.113 125.624 123.17 124.933 123.17C124.253 123.17 123.681 122.938 123.216 122.473C122.751 122.008 122.519 121.391 122.519 120.62V111.1H125.494V120.195C125.494 120.365 125.551 120.507 125.664 120.62C125.777 120.733 125.919 120.79 126.089 120.79H127.109V123ZM137.136 119.43L138.666 113.99H141.896L139.091 123H135.946L134.246 117.56L132.546 123H129.401L126.596 113.99H129.826L131.356 119.43L132.886 113.99H135.606L137.136 119.43ZM145.812 120.79C146.412 120.79 147.092 120.677 147.852 120.45V119.43H145.387C145.217 119.43 145.075 119.487 144.962 119.6C144.848 119.713 144.792 119.855 144.792 120.025V120.195C144.792 120.365 144.848 120.507 144.962 120.62C145.075 120.733 145.217 120.79 145.387 120.79H145.812ZM142.667 114.16C144.741 113.933 146.611 113.82 148.277 113.82C149.047 113.82 149.665 114.052 150.13 114.517C150.594 114.982 150.827 115.599 150.827 116.37V123H148.192L148.022 122.15C147.489 122.501 146.939 122.762 146.373 122.932C145.817 123.091 145.347 123.17 144.962 123.17H144.367C143.596 123.17 142.978 122.938 142.514 122.473C142.049 122.008 141.817 121.391 141.817 120.62V119.855C141.817 119.084 142.049 118.467 142.514 118.002C142.978 117.537 143.596 117.305 144.367 117.305H147.852V116.625C147.852 116.455 147.795 116.313 147.682 116.2C147.568 116.087 147.427 116.03 147.257 116.03C146.52 116.03 145.704 116.064 144.809 116.132C143.925 116.2 143.211 116.251 142.667 116.285V114.16ZM154.566 126.06C153.965 126.06 153.229 126.003 152.356 125.89V123.68H153.886C154.317 123.68 154.594 123.561 154.719 123.323C154.855 123.085 154.832 122.751 154.651 122.32L151.166 113.99H154.311L156.436 119.77L158.221 113.99H161.366L157.966 123.34C157.637 124.235 157.212 124.91 156.691 125.363C156.17 125.828 155.461 126.06 154.566 126.06ZM161.541 120.62C163.842 120.79 165.655 120.875 166.981 120.875C167.151 120.875 167.293 120.818 167.406 120.705C167.52 120.592 167.576 120.45 167.576 120.28V119.685H163.921C163.151 119.685 162.533 119.453 162.068 118.988C161.604 118.523 161.371 117.906 161.371 117.135V116.54C161.371 115.769 161.604 115.152 162.068 114.687C162.533 114.222 163.151 113.99 163.921 113.99H169.701V116.2H164.941C164.771 116.2 164.63 116.257 164.516 116.37C164.403 116.483 164.346 116.625 164.346 116.795C164.346 116.965 164.403 117.107 164.516 117.22C164.63 117.333 164.771 117.39 164.941 117.39H168.001C168.772 117.39 169.39 117.622 169.854 118.087C170.319 118.552 170.551 119.169 170.551 119.94V120.62C170.551 121.391 170.319 122.008 169.854 122.473C169.39 122.938 168.772 123.17 168.001 123.17C165.995 123.17 163.842 123.057 161.541 122.83V120.62ZM181.429 123C180.67 123.113 179.945 123.17 179.253 123.17C178.573 123.17 178.001 122.938 177.536 122.473C177.072 122.008 176.839 121.391 176.839 120.62V111.1H179.814V120.195C179.814 120.365 179.871 120.507 179.984 120.62C180.098 120.733 180.239 120.79 180.409 120.79H181.429V123ZM186.102 115.945C185.648 115.945 185.422 116.172 185.422 116.625V117.56H188.312V116.625C188.312 116.172 188.085 115.945 187.632 115.945H186.102ZM190.947 122.83C188.759 123.057 186.776 123.17 184.997 123.17C184.226 123.17 183.608 122.938 183.144 122.473C182.679 122.008 182.447 121.391 182.447 120.62V116.54C182.447 115.69 182.685 115.027 183.161 114.551C183.648 114.064 184.317 113.82 185.167 113.82H188.567C189.417 113.82 190.08 114.064 190.556 114.551C191.043 115.027 191.287 115.69 191.287 116.54V119.685H185.422V120.365C185.422 120.535 185.478 120.677 185.592 120.79C185.705 120.903 185.847 120.96 186.017 120.96C187.139 120.96 188.782 120.875 190.947 120.705V122.83ZM196.38 120.79C196.981 120.79 197.661 120.677 198.42 120.45V119.43H195.955C195.785 119.43 195.643 119.487 195.53 119.6C195.417 119.713 195.36 119.855 195.36 120.025V120.195C195.36 120.365 195.417 120.507 195.53 120.62C195.643 120.733 195.785 120.79 195.955 120.79H196.38ZM193.235 114.16C195.309 113.933 197.179 113.82 198.845 113.82C199.616 113.82 200.233 114.052 200.698 114.517C201.163 114.982 201.395 115.599 201.395 116.37V123H198.76L198.59 122.15C198.057 122.501 197.508 122.762 196.941 122.932C196.386 123.091 195.915 123.17 195.53 123.17H194.935C194.164 123.17 193.547 122.938 193.082 122.473C192.617 122.008 192.385 121.391 192.385 120.62V119.855C192.385 119.084 192.617 118.467 193.082 118.002C193.547 117.537 194.164 117.305 194.935 117.305H198.42V116.625C198.42 116.455 198.363 116.313 198.25 116.2C198.137 116.087 197.995 116.03 197.825 116.03C197.088 116.03 196.272 116.064 195.377 116.132C194.493 116.2 193.779 116.251 193.235 116.285V114.16ZM208.105 116.455C207.391 116.455 206.655 116.625 205.895 116.965V123H202.92V113.99H205.555L205.725 115.095C206.7 114.245 207.72 113.82 208.785 113.82H209.55V116.455H208.105ZM215.755 116.285C215.154 116.285 214.474 116.398 213.715 116.625V123H210.74V113.99H213.375L213.545 114.84C214.077 114.489 214.621 114.234 215.177 114.075C215.743 113.905 216.219 113.82 216.605 113.82H217.37C218.14 113.82 218.758 114.052 219.223 114.517C219.687 114.982 219.92 115.599 219.92 116.37V123H216.945V116.88C216.945 116.71 216.888 116.568 216.775 116.455C216.661 116.342 216.52 116.285 216.35 116.285H215.755ZM225.188 114.33V123H222.213V116.625H220.938V114.33H225.188ZM222.213 110.93H225.188V113.31H222.213V110.93ZM231.908 116.285C231.307 116.285 230.627 116.398 229.868 116.625V123H226.893V113.99H229.528L229.698 114.84C230.231 114.489 230.775 114.234 231.33 114.075C231.897 113.905 232.373 113.82 232.758 113.82H233.523C234.294 113.82 234.911 114.052 235.376 114.517C235.841 114.982 236.073 115.599 236.073 116.37V123H233.098V116.88C233.098 116.71 233.041 116.568 232.928 116.455C232.815 116.342 232.673 116.285 232.503 116.285H231.908ZM243.466 122.32C242.367 122.547 241.403 122.66 240.576 122.66H239.981C239.21 122.66 238.593 122.428 238.128 121.963C237.663 121.498 237.431 120.881 237.431 120.11V116.71C237.431 115.86 237.669 115.197 238.145 114.721C238.632 114.234 239.301 113.99 240.151 113.99H246.441V123.51C246.441 124.281 246.209 124.898 245.744 125.363C245.279 125.828 244.662 126.06 243.891 126.06C242.112 126.06 240.128 125.947 237.941 125.72V123.51C240.106 123.68 241.749 123.765 242.871 123.765C243.041 123.765 243.183 123.708 243.296 123.595C243.409 123.482 243.466 123.34 243.466 123.17V122.32ZM241.426 120.365C242.14 120.365 242.82 120.308 243.466 120.195V116.285H241.086C240.633 116.285 240.406 116.512 240.406 116.965V119.77C240.406 119.94 240.463 120.082 240.576 120.195C240.689 120.308 240.831 120.365 241.001 120.365H241.426ZM247.803 120.45H250.863V122.83L249.673 124.7H248.143L248.823 123H247.803V120.45ZM260.894 120.79C261.494 120.79 262.174 120.677 262.934 120.45V119.43H260.469C260.299 119.43 260.157 119.487 260.044 119.6C259.93 119.713 259.874 119.855 259.874 120.025V120.195C259.874 120.365 259.93 120.507 260.044 120.62C260.157 120.733 260.299 120.79 260.469 120.79H260.894ZM257.749 114.16C259.823 113.933 261.693 113.82 263.359 113.82C264.129 113.82 264.747 114.052 265.212 114.517C265.676 114.982 265.909 115.599 265.909 116.37V123H263.274L263.104 122.15C262.571 122.501 262.021 122.762 261.455 122.932C260.899 123.091 260.429 123.17 260.044 123.17H259.449C258.678 123.17 258.06 122.938 257.596 122.473C257.131 122.008 256.899 121.391 256.899 120.62V119.855C256.899 119.084 257.131 118.467 257.596 118.002C258.06 117.537 258.678 117.305 259.449 117.305H262.934V116.625C262.934 116.455 262.877 116.313 262.764 116.2C262.65 116.087 262.509 116.03 262.339 116.03C261.602 116.03 260.786 116.064 259.891 116.132C259.007 116.2 258.293 116.251 257.749 116.285V114.16ZM272.024 123C271.265 123.113 270.539 123.17 269.848 123.17C269.168 123.17 268.596 122.938 268.131 122.473C267.666 122.008 267.434 121.391 267.434 120.62V111.1H270.409V120.195C270.409 120.365 270.466 120.507 270.579 120.62C270.692 120.733 270.834 120.79 271.004 120.79H272.024V123ZM282.051 119.43L283.581 113.99H286.811L284.006 123H280.861L279.161 117.56L277.461 123H274.316L271.511 113.99H274.741L276.271 119.43L277.801 113.99H280.521L282.051 119.43ZM290.727 120.79C291.327 120.79 292.007 120.677 292.767 120.45V119.43H290.302C290.132 119.43 289.99 119.487 289.877 119.6C289.763 119.713 289.707 119.855 289.707 120.025V120.195C289.707 120.365 289.763 120.507 289.877 120.62C289.99 120.733 290.132 120.79 290.302 120.79H290.727ZM287.582 114.16C289.656 113.933 291.526 113.82 293.192 113.82C293.962 113.82 294.58 114.052 295.045 114.517C295.509 114.982 295.742 115.599 295.742 116.37V123H293.107L292.937 122.15C292.404 122.501 291.854 122.762 291.288 122.932C290.732 123.091 290.262 123.17 289.877 123.17H289.282C288.511 123.17 287.893 122.938 287.429 122.473C286.964 122.008 286.732 121.391 286.732 120.62V119.855C286.732 119.084 286.964 118.467 287.429 118.002C287.893 117.537 288.511 117.305 289.282 117.305H292.767V116.625C292.767 116.455 292.71 116.313 292.597 116.2C292.483 116.087 292.342 116.03 292.172 116.03C291.435 116.03 290.619 116.064 289.724 116.132C288.84 116.2 288.126 116.251 287.582 116.285V114.16ZM299.481 126.06C298.88 126.06 298.144 126.003 297.271 125.89V123.68H298.801C299.232 123.68 299.509 123.561 299.634 123.323C299.77 123.085 299.747 122.751 299.566 122.32L296.081 113.99H299.226L301.351 119.77L303.136 113.99H306.281L302.881 123.34C302.552 124.235 302.127 124.91 301.606 125.363C301.085 125.828 300.376 126.06 299.481 126.06ZM306.456 120.62C308.757 120.79 310.57 120.875 311.896 120.875C312.066 120.875 312.208 120.818 312.321 120.705C312.435 120.592 312.491 120.45 312.491 120.28V119.685H308.836C308.066 119.685 307.448 119.453 306.983 118.988C306.519 118.523 306.286 117.906 306.286 117.135V116.54C306.286 115.769 306.519 115.152 306.983 114.687C307.448 114.222 308.066 113.99 308.836 113.99H314.616V116.2H309.856C309.686 116.2 309.545 116.257 309.431 116.37C309.318 116.483 309.261 116.625 309.261 116.795C309.261 116.965 309.318 117.107 309.431 117.22C309.545 117.333 309.686 117.39 309.856 117.39H312.916C313.687 117.39 314.305 117.622 314.769 118.087C315.234 118.552 315.466 119.169 315.466 119.94V120.62C315.466 121.391 315.234 122.008 314.769 122.473C314.305 122.938 313.687 123.17 312.916 123.17C310.91 123.17 308.757 123.057 306.456 122.83V120.62ZM327.789 116.71C327.789 116.54 327.733 116.398 327.619 116.285C327.506 116.172 327.364 116.115 327.194 116.115H326.769C326.293 116.115 325.88 116.138 325.528 116.183C325.188 116.228 324.922 116.262 324.729 116.285V120.705H327.109C327.563 120.705 327.789 120.478 327.789 120.025V116.71ZM324.729 114.16C325.829 113.933 326.792 113.82 327.619 113.82H328.214C328.985 113.82 329.603 114.052 330.067 114.517C330.532 114.982 330.764 115.599 330.764 116.37V120.28C330.764 121.13 330.521 121.799 330.033 122.286C329.557 122.762 328.894 123 328.044 123H321.754V111.1H324.729V114.16ZM336.461 120.705C337.062 120.705 337.742 120.592 338.501 120.365V113.99H341.476V123H338.841L338.671 122.15C338.139 122.501 337.589 122.762 337.022 122.932C336.467 123.091 335.997 123.17 335.611 123.17H334.846C334.076 123.17 333.458 122.938 332.993 122.473C332.529 122.008 332.296 121.391 332.296 120.62V113.99H335.271V120.11C335.271 120.28 335.328 120.422 335.441 120.535C335.555 120.648 335.696 120.705 335.866 120.705H336.461ZM346.91 114.33V123H343.935V116.625H342.66V114.33H346.91ZM343.935 110.93H346.91V113.31H343.935V110.93ZM353.206 123C352.446 123.113 351.721 123.17 351.03 123.17C350.35 123.17 349.777 122.938 349.313 122.473C348.848 122.008 348.616 121.391 348.616 120.62V111.1H351.591V120.195C351.591 120.365 351.647 120.507 351.761 120.62C351.874 120.733 352.016 120.79 352.186 120.79H353.206V123ZM360.768 123L360.598 122.15C360.065 122.501 359.516 122.762 358.949 122.932C358.394 123.091 357.923 123.17 357.538 123.17H356.773C356.002 123.17 355.385 122.938 354.92 122.473C354.455 122.008 354.223 121.391 354.223 120.62V116.71C354.223 115.86 354.461 115.197 354.937 114.721C355.424 114.234 356.093 113.99 356.943 113.99H360.428V111.1H363.403V123H360.768ZM358.388 120.705C358.989 120.705 359.669 120.592 360.428 120.365V116.285H357.878C357.425 116.285 357.198 116.512 357.198 116.965V120.11C357.198 120.28 357.255 120.422 357.368 120.535C357.481 120.648 357.623 120.705 357.793 120.705H358.388ZM368.841 114.33V123H365.866V116.625H364.591V114.33H368.841ZM365.866 110.93H368.841V113.31H365.866V110.93ZM375.561 116.285C374.961 116.285 374.281 116.398 373.521 116.625V123H370.546V113.99H373.181L373.351 114.84C373.884 114.489 374.428 114.234 374.983 114.075C375.55 113.905 376.026 113.82 376.411 113.82H377.176C377.947 113.82 378.565 114.052 379.029 114.517C379.494 114.982 379.726 115.599 379.726 116.37V123H376.751V116.88C376.751 116.71 376.695 116.568 376.581 116.455C376.468 116.342 376.326 116.285 376.156 116.285H375.561ZM387.119 122.32C386.02 122.547 385.057 122.66 384.229 122.66H383.634C382.864 122.66 382.246 122.428 381.781 121.963C381.317 121.498 381.084 120.881 381.084 120.11V116.71C381.084 115.86 381.322 115.197 381.798 114.721C382.286 114.234 382.954 113.99 383.804 113.99H390.094V123.51C390.094 124.281 389.862 124.898 389.397 125.363C388.933 125.828 388.315 126.06 387.544 126.06C385.765 126.06 383.782 125.947 381.594 125.72V123.51C383.759 123.68 385.402 123.765 386.524 123.765C386.694 123.765 386.836 123.708 386.949 123.595C387.063 123.482 387.119 123.34 387.119 123.17V122.32ZM385.079 120.365C385.793 120.365 386.473 120.308 387.119 120.195V116.285H384.739C384.286 116.285 384.059 116.512 384.059 116.965V119.77C384.059 119.94 384.116 120.082 384.229 120.195C384.343 120.308 384.484 120.365 384.654 120.365H385.079ZM391.456 120.45H394.516V123H391.456V120.45ZM395.88 115.35L395.54 112.63V111.1H398.09V112.63L397.75 115.35H395.88ZM399.11 115.35L398.77 112.63V111.1H401.32V112.63L400.98 115.35H399.11ZM27.73 137.985C26.71 137.554 26.2 136.846 26.2 135.86V132.375C26.2 132.205 26.1433 132.063 26.03 131.95C25.9167 131.837 25.775 131.78 25.605 131.78H24.5V129.4H26.71C27.4807 129.4 28.0983 129.632 28.563 130.097C29.0277 130.562 29.26 131.179 29.26 131.95V136.2C29.26 136.37 29.3167 136.512 29.43 136.625C29.5433 136.738 29.685 136.795 29.855 136.795H30.62V139.175H29.855C29.685 139.175 29.5433 139.232 29.43 139.345C29.3167 139.458 29.26 139.6 29.26 139.77V144.02C29.26 144.791 29.0277 145.408 28.563 145.873C28.0983 146.338 27.4807 146.57 26.71 146.57H24.5V144.19H25.605C25.775 144.19 25.9167 144.133 26.03 144.02C26.1433 143.907 26.2 143.765 26.2 143.595V140.11C26.2 139.124 26.71 138.416 27.73 137.985ZM31.302 133.99H34.362V136.54H31.302V133.99ZM31.302 140.45H34.362V142.83L33.172 144.7H31.642L32.492 143H31.302V140.45ZM33.34 182.83C31.2207 183.057 29.3507 183.17 27.73 183.17C26.9593 183.17 26.3417 182.938 25.877 182.473C25.4123 182.008 25.18 181.391 25.18 180.62V176.71C25.18 175.86 25.418 175.197 25.894 174.721C26.3813 174.234 27.05 173.99 27.9 173.99H33.34V176.285H28.835C28.3817 176.285 28.155 176.512 28.155 176.965V180.28C28.155 180.45 28.2117 180.592 28.325 180.705C28.4383 180.818 28.58 180.875 28.75 180.875C29.77 180.875 31.3 180.79 33.34 180.62V182.83ZM43.8767 180.45C43.8767 181.3 43.633 181.969 43.1457 182.456C42.6697 182.932 42.0067 183.17 41.1567 183.17H37.2467C36.3967 183.17 35.728 182.932 35.2407 182.456C34.7647 181.969 34.5267 181.3 34.5267 180.45V176.54C34.5267 175.69 34.7647 175.027 35.2407 174.551C35.728 174.064 36.3967 173.82 37.2467 173.82H41.1567C42.0067 173.82 42.6697 174.064 43.1457 174.551C43.633 175.027 43.8767 175.69 43.8767 176.54V180.45ZM40.9017 176.795C40.9017 176.342 40.675 176.115 40.2217 176.115H38.1817C37.7283 176.115 37.5017 176.342 37.5017 176.795V180.195C37.5017 180.648 37.7283 180.875 38.1817 180.875H40.2217C40.675 180.875 40.9017 180.648 40.9017 180.195V176.795ZM50.4197 176.285C49.819 176.285 49.139 176.398 48.3797 176.625V183H45.4047V173.99H48.0397L48.2097 174.84C48.7424 174.489 49.2864 174.234 49.8417 174.075C50.4084 173.905 50.8844 173.82 51.2697 173.82H52.0347C52.8054 173.82 53.423 174.052 53.8877 174.517C54.3524 174.982 54.5847 175.599 54.5847 176.37V183H51.6097V176.88C51.6097 176.71 51.553 176.568 51.4397 176.455C51.3264 176.342 51.1847 176.285 51.0147 176.285H50.4197ZM55.7727 180.62C58.0734 180.79 59.8867 180.875 61.2127 180.875C61.3827 180.875 61.5244 180.818 61.6377 180.705C61.751 180.592 61.8077 180.45 61.8077 180.28V179.685H58.1527C57.382 179.685 56.7644 179.453 56.2997 178.988C55.835 178.523 55.6027 177.906 55.6027 177.135V176.54C55.6027 175.769 55.835 175.152 56.2997 174.687C56.7644 174.222 57.382 173.99 58.1527 173.99H63.9327V176.2H59.1727C59.0027 176.2 58.861 176.257 58.7477 176.37C58.6344 176.483 58.5777 176.625 58.5777 176.795C58.5777 176.965 58.6344 177.107 58.7477 177.22C58.861 177.333 59.0027 177.39 59.1727 177.39H62.2327C63.0034 177.39 63.621 177.622 64.0857 178.087C64.5504 178.552 64.7827 179.169 64.7827 179.94V180.62C64.7827 181.391 64.5504 182.008 64.0857 182.473C63.621 182.938 63.0034 183.17 62.2327 183.17C60.2267 183.17 58.0734 183.057 55.7727 182.83V180.62ZM75.154 180.45C75.154 181.3 74.9104 181.969 74.423 182.456C73.947 182.932 73.284 183.17 72.434 183.17H68.524C67.674 183.17 67.0054 182.932 66.518 182.456C66.042 181.969 65.804 181.3 65.804 180.45V176.54C65.804 175.69 66.042 175.027 66.518 174.551C67.0054 174.064 67.674 173.82 68.524 173.82H72.434C73.284 173.82 73.947 174.064 74.423 174.551C74.9104 175.027 75.154 175.69 75.154 176.54V180.45ZM72.179 176.795C72.179 176.342 71.9524 176.115 71.499 176.115H69.459C69.0057 176.115 68.779 176.342 68.779 176.795V180.195C68.779 180.648 69.0057 180.875 69.459 180.875H71.499C71.9524 180.875 72.179 180.648 72.179 180.195V176.795ZM81.272 183C80.5127 183.113 79.7874 183.17 79.096 183.17C78.416 183.17 77.8437 182.938 77.379 182.473C76.9144 182.008 76.682 181.391 76.682 180.62V171.1H79.657V180.195C79.657 180.365 79.7137 180.507 79.827 180.62C79.9404 180.733 80.082 180.79 80.252 180.79H81.272V183ZM85.9444 175.945C85.491 175.945 85.2644 176.172 85.2644 176.625V177.56H88.1544V176.625C88.1544 176.172 87.9277 175.945 87.4744 175.945H85.9444ZM90.7894 182.83C88.602 183.057 86.6187 183.17 84.8394 183.17C84.0687 183.17 83.451 182.938 82.9864 182.473C82.5217 182.008 82.2894 181.391 82.2894 180.62V176.54C82.2894 175.69 82.5274 175.027 83.0034 174.551C83.4907 174.064 84.1594 173.82 85.0094 173.82H88.4094C89.2594 173.82 89.9224 174.064 90.3984 174.551C90.8857 175.027 91.1294 175.69 91.1294 176.54V179.685H85.2644V180.365C85.2644 180.535 85.321 180.677 85.4344 180.79C85.5477 180.903 85.6894 180.96 85.8594 180.96C86.9814 180.96 88.6247 180.875 90.7894 180.705V182.83ZM92.3127 180.45H95.3727V183H92.3127V180.45ZM101.327 183C100.567 183.113 99.8421 183.17 99.1507 183.17C98.4707 183.17 97.8984 182.938 97.4337 182.473C96.9691 182.008 96.7367 181.391 96.7367 180.62V171.1H99.7117V180.195C99.7117 180.365 99.7684 180.507 99.8817 180.62C99.9951 180.733 100.137 180.79 100.307 180.79H101.327V183ZM111.694 180.45C111.694 181.3 111.45 181.969 110.963 182.456C110.487 182.932 109.824 183.17 108.974 183.17H105.064C104.214 183.17 103.545 182.932 103.058 182.456C102.582 181.969 102.344 181.3 102.344 180.45V176.54C102.344 175.69 102.582 175.027 103.058 174.551C103.545 174.064 104.214 173.82 105.064 173.82H108.974C109.824 173.82 110.487 174.064 110.963 174.551C111.45 175.027 111.694 175.69 111.694 176.54V180.45ZM108.719 176.795C108.719 176.342 108.492 176.115 108.039 176.115H105.999C105.546 176.115 105.319 176.342 105.319 176.795V180.195C105.319 180.648 105.546 180.875 105.999 180.875H108.039C108.492 180.875 108.719 180.648 108.719 180.195V176.795ZM119.087 182.32C117.988 182.547 117.024 182.66 116.197 182.66H115.602C114.831 182.66 114.214 182.428 113.749 181.963C113.284 181.498 113.052 180.881 113.052 180.11V176.71C113.052 175.86 113.29 175.197 113.766 174.721C114.253 174.234 114.922 173.99 115.772 173.99H122.062V183.51C122.062 184.281 121.83 184.898 121.365 185.363C120.9 185.828 120.283 186.06 119.512 186.06C117.733 186.06 115.749 185.947 113.562 185.72V183.51C115.727 183.68 117.37 183.765 118.492 183.765C118.662 183.765 118.804 183.708 118.917 183.595C119.03 183.482 119.087 183.34 119.087 183.17V182.32ZM117.047 180.365C117.761 180.365 118.441 180.308 119.087 180.195V176.285H116.707C116.254 176.285 116.027 176.512 116.027 176.965V179.77C116.027 179.94 116.084 180.082 116.197 180.195C116.31 180.308 116.452 180.365 116.622 180.365H117.047ZM126.484 177.985C126.484 180.977 127.192 183.555 128.609 185.72L127.164 186.91C125.963 185.799 125.039 184.473 124.393 182.932C123.747 181.391 123.424 179.742 123.424 177.985C123.424 176.228 123.747 174.579 124.393 173.038C125.039 171.497 125.963 170.171 127.164 169.06L128.609 170.25C127.192 172.415 126.484 174.993 126.484 177.985ZM129.292 175.35L128.952 172.63V171.1H131.502V172.63L131.162 175.35H129.292ZM132.522 175.35L132.182 172.63V171.1H134.732V172.63L134.392 175.35H132.522ZM142.049 183H138.989V173.48H135.419V171.1H145.619V173.48H142.049V183ZM149.959 180.705C150.56 180.705 151.24 180.592 151.999 180.365V173.99H154.974V183H152.339L152.169 182.15C151.637 182.501 151.087 182.762 150.52 182.932C149.965 183.091 149.495 183.17 149.109 183.17H148.344C147.574 183.17 146.956 182.938 146.491 182.473C146.027 182.008 145.794 181.391 145.794 180.62V173.99H148.769V180.11C148.769 180.28 148.826 180.422 148.939 180.535C149.053 180.648 149.194 180.705 149.364 180.705H149.959ZM161.853 176.455C161.139 176.455 160.403 176.625 159.643 176.965V183H156.668V173.99H159.303L159.473 175.095C160.448 174.245 161.468 173.82 162.533 173.82H163.298V176.455H161.853ZM169.503 176.285C168.902 176.285 168.222 176.398 167.463 176.625V183H164.488V173.99H167.123L167.293 174.84C167.825 174.489 168.369 174.234 168.925 174.075C169.491 173.905 169.967 173.82 170.353 173.82H171.118C171.888 173.82 172.506 174.052 172.971 174.517C173.435 174.982 173.668 175.599 173.668 176.37V183H170.693V176.88C170.693 176.71 170.636 176.568 170.523 176.455C170.409 176.342 170.268 176.285 170.098 176.285H169.503ZM178.936 174.33V183H175.961V176.625H174.686V174.33H178.936ZM175.961 170.93H178.936V173.31H175.961V170.93ZM185.656 176.285C185.055 176.285 184.375 176.398 183.616 176.625V183H180.641V173.99H183.276L183.446 174.84C183.979 174.489 184.523 174.234 185.078 174.075C185.645 173.905 186.121 173.82 186.506 173.82H187.271C188.042 173.82 188.659 174.052 189.124 174.517C189.589 174.982 189.821 175.599 189.821 176.37V183H186.846V176.88C186.846 176.71 186.789 176.568 186.676 176.455C186.563 176.342 186.421 176.285 186.251 176.285H185.656ZM197.214 182.32C196.115 182.547 195.151 182.66 194.324 182.66H193.729C192.958 182.66 192.341 182.428 191.876 181.963C191.411 181.498 191.179 180.881 191.179 180.11V176.71C191.179 175.86 191.417 175.197 191.893 174.721C192.38 174.234 193.049 173.99 193.899 173.99H200.189V183.51C200.189 184.281 199.957 184.898 199.492 185.363C199.027 185.828 198.41 186.06 197.639 186.06C195.86 186.06 193.876 185.947 191.689 185.72V183.51C193.854 183.68 195.497 183.765 196.619 183.765C196.789 183.765 196.931 183.708 197.044 183.595C197.157 183.482 197.214 183.34 197.214 183.17V182.32ZM195.174 180.365C195.888 180.365 196.568 180.308 197.214 180.195V176.285H194.834C194.381 176.285 194.154 176.512 194.154 176.965V179.77C194.154 179.94 194.211 180.082 194.324 180.195C194.437 180.308 194.579 180.365 194.749 180.365H195.174ZM210.728 174.33V183H207.753V176.625H206.478V174.33H210.728ZM207.753 170.93H210.728V173.31H207.753V170.93ZM218.808 183L218.638 182.15C218.105 182.501 217.556 182.762 216.989 182.932C216.434 183.091 215.963 183.17 215.578 183.17H214.813C214.042 183.17 213.425 182.938 212.96 182.473C212.495 182.008 212.263 181.391 212.263 180.62V176.71C212.263 175.86 212.501 175.197 212.977 174.721C213.464 174.234 214.133 173.99 214.983 173.99H218.468V171.1H221.443V183H218.808ZM216.428 180.705C217.029 180.705 217.709 180.592 218.468 180.365V176.285H215.918C215.465 176.285 215.238 176.512 215.238 176.965V180.11C215.238 180.28 215.295 180.422 215.408 180.535C215.521 180.648 215.663 180.705 215.833 180.705H216.428ZM226.626 175.945C226.173 175.945 225.946 176.172 225.946 176.625V177.56H228.836V176.625C228.836 176.172 228.609 175.945 228.156 175.945H226.626ZM231.471 182.83C229.284 183.057 227.3 183.17 225.521 183.17C224.75 183.17 224.133 182.938 223.668 182.473C223.203 182.008 222.971 181.391 222.971 180.62V176.54C222.971 175.69 223.209 175.027 223.685 174.551C224.172 174.064 224.841 173.82 225.691 173.82H229.091C229.941 173.82 230.604 174.064 231.08 174.551C231.567 175.027 231.811 175.69 231.811 176.54V179.685H225.946V180.365C225.946 180.535 226.003 180.677 226.116 180.79C226.229 180.903 226.371 180.96 226.541 180.96C227.663 180.96 229.306 180.875 231.471 180.705V182.83ZM236.904 180.79C237.505 180.79 238.185 180.677 238.944 180.45V179.43H236.479C236.309 179.43 236.168 179.487 236.054 179.6C235.941 179.713 235.884 179.855 235.884 180.025V180.195C235.884 180.365 235.941 180.507 236.054 180.62C236.168 180.733 236.309 180.79 236.479 180.79H236.904ZM233.759 174.16C235.833 173.933 237.703 173.82 239.369 173.82C240.14 173.82 240.758 174.052 241.222 174.517C241.687 174.982 241.919 175.599 241.919 176.37V183H239.284L239.114 182.15C238.582 182.501 238.032 182.762 237.465 182.932C236.91 183.091 236.44 183.17 236.054 183.17H235.459C234.689 183.17 234.071 182.938 233.606 182.473C233.142 182.008 232.909 181.391 232.909 180.62V179.855C232.909 179.084 233.142 178.467 233.606 178.002C234.071 177.537 234.689 177.305 235.459 177.305H238.944V176.625C238.944 176.455 238.888 176.313 238.774 176.2C238.661 176.087 238.519 176.03 238.349 176.03C237.613 176.03 236.797 176.064 235.901 176.132C235.017 176.2 234.303 176.251 233.759 176.285V174.16ZM243.105 180.62C245.405 180.79 247.219 180.875 248.545 180.875C248.715 180.875 248.856 180.818 248.97 180.705C249.083 180.592 249.14 180.45 249.14 180.28V179.685H245.485C244.714 179.685 244.096 179.453 243.632 178.988C243.167 178.523 242.935 177.906 242.935 177.135V176.54C242.935 175.769 243.167 175.152 243.632 174.687C244.096 174.222 244.714 173.99 245.485 173.99H251.265V176.2H246.505C246.335 176.2 246.193 176.257 246.08 176.37C245.966 176.483 245.91 176.625 245.91 176.795C245.91 176.965 245.966 177.107 246.08 177.22C246.193 177.333 246.335 177.39 246.505 177.39H249.565C250.335 177.39 250.953 177.622 251.418 178.087C251.882 178.552 252.115 179.169 252.115 179.94V180.62C252.115 181.391 251.882 182.008 251.418 182.473C250.953 182.938 250.335 183.17 249.565 183.17C247.559 183.17 245.405 183.057 243.105 182.83V180.62ZM262.143 174.33V183H259.168V176.625H257.893V174.33H262.143ZM259.168 170.93H262.143V173.31H259.168V170.93ZM268.863 176.285C268.262 176.285 267.582 176.398 266.823 176.625V183H263.848V173.99H266.483L266.653 174.84C267.186 174.489 267.73 174.234 268.285 174.075C268.852 173.905 269.328 173.82 269.713 173.82H270.478C271.249 173.82 271.866 174.052 272.331 174.517C272.796 174.982 273.028 175.599 273.028 176.37V183H270.053V176.88C270.053 176.71 269.996 176.568 269.883 176.455C269.77 176.342 269.628 176.285 269.458 176.285H268.863ZM280.846 183C279.747 183.113 278.67 183.17 277.616 183.17C276.845 183.17 276.228 182.938 275.763 182.473C275.298 182.008 275.066 181.391 275.066 180.62V176.285H274.046V173.99H275.066L275.406 171.95H278.041V173.99H280.166V176.285H278.041V180.195C278.041 180.365 278.098 180.507 278.211 180.62C278.324 180.733 278.466 180.79 278.636 180.79H280.846V183ZM290.891 180.45C290.891 181.3 290.648 181.969 290.16 182.456C289.684 182.932 289.021 183.17 288.171 183.17H284.261C283.411 183.17 282.743 182.932 282.255 182.456C281.779 181.969 281.541 181.3 281.541 180.45V176.54C281.541 175.69 281.779 175.027 282.255 174.551C282.743 174.064 283.411 173.82 284.261 173.82H288.171C289.021 173.82 289.684 174.064 290.16 174.551C290.648 175.027 290.891 175.69 290.891 176.54V180.45ZM287.916 176.795C287.916 176.342 287.69 176.115 287.236 176.115H285.196C284.743 176.115 284.516 176.342 284.516 176.795V180.195C284.516 180.648 284.743 180.875 285.196 180.875H287.236C287.69 180.875 287.916 180.648 287.916 180.195V176.795ZM301.256 174.33V183H298.281V176.625H297.006V174.33H301.256ZM298.281 170.93H301.256V173.31H298.281V170.93ZM307.976 176.285C307.376 176.285 306.696 176.398 305.936 176.625V183H302.961V173.99H305.596L305.766 174.84C306.299 174.489 306.843 174.234 307.398 174.075C307.965 173.905 308.441 173.82 308.826 173.82H309.591C310.362 173.82 310.98 174.052 311.444 174.517C311.909 174.982 312.141 175.599 312.141 176.37V183H309.166V176.88C309.166 176.71 309.11 176.568 308.996 176.455C308.883 176.342 308.741 176.285 308.571 176.285H307.976ZM319.959 183C318.86 183.113 317.783 183.17 316.729 183.17C315.959 183.17 315.341 182.938 314.876 182.473C314.412 182.008 314.179 181.391 314.179 180.62V176.285H313.159V173.99H314.179L314.519 171.95H317.154V173.99H319.279V176.285H317.154V180.195C317.154 180.365 317.211 180.507 317.324 180.62C317.438 180.733 317.579 180.79 317.749 180.79H319.959V183ZM324.476 175.945C324.022 175.945 323.796 176.172 323.796 176.625V177.56H326.686V176.625C326.686 176.172 326.459 175.945 326.006 175.945H324.476ZM329.321 182.83C327.133 183.057 325.15 183.17 323.371 183.17C322.6 183.17 321.982 182.938 321.518 182.473C321.053 182.008 320.821 181.391 320.821 180.62V176.54C320.821 175.69 321.059 175.027 321.535 174.551C322.022 174.064 322.691 173.82 323.541 173.82H326.941C327.791 173.82 328.454 174.064 328.93 174.551C329.417 175.027 329.661 175.69 329.661 176.54V179.685H323.796V180.365C323.796 180.535 323.852 180.677 323.966 180.79C324.079 180.903 324.221 180.96 324.391 180.96C325.513 180.96 327.156 180.875 329.321 180.705V182.83ZM336.369 176.455C335.655 176.455 334.918 176.625 334.159 176.965V183H331.184V173.99H333.819L333.989 175.095C334.964 174.245 335.984 173.82 337.049 173.82H337.814V176.455H336.369ZM341.893 180.79C342.493 180.79 343.173 180.677 343.933 180.45V179.43H341.468C341.298 179.43 341.156 179.487 341.043 179.6C340.929 179.713 340.873 179.855 340.873 180.025V180.195C340.873 180.365 340.929 180.507 341.043 180.62C341.156 180.733 341.298 180.79 341.468 180.79H341.893ZM338.748 174.16C340.822 173.933 342.692 173.82 344.358 173.82C345.128 173.82 345.746 174.052 346.211 174.517C346.675 174.982 346.908 175.599 346.908 176.37V183H344.273L344.103 182.15C343.57 182.501 343.02 182.762 342.454 182.932C341.898 183.091 341.428 183.17 341.043 183.17H340.448C339.677 183.17 339.059 182.938 338.595 182.473C338.13 182.008 337.898 181.391 337.898 180.62V179.855C337.898 179.084 338.13 178.467 338.595 178.002C339.059 177.537 339.677 177.305 340.448 177.305H343.933V176.625C343.933 176.455 343.876 176.313 343.763 176.2C343.649 176.087 343.508 176.03 343.338 176.03C342.601 176.03 341.785 176.064 340.89 176.132C340.006 176.2 339.292 176.251 338.748 176.285V174.16ZM356.423 182.83C354.304 183.057 352.434 183.17 350.813 183.17C350.042 183.17 349.425 182.938 348.96 182.473C348.495 182.008 348.263 181.391 348.263 180.62V176.71C348.263 175.86 348.501 175.197 348.977 174.721C349.464 174.234 350.133 173.99 350.983 173.99H356.423V176.285H351.918C351.465 176.285 351.238 176.512 351.238 176.965V180.28C351.238 180.45 351.295 180.592 351.408 180.705C351.521 180.818 351.663 180.875 351.833 180.875C352.853 180.875 354.383 180.79 356.423 180.62V182.83ZM364.07 183C362.97 183.113 361.894 183.17 360.84 183.17C360.069 183.17 359.451 182.938 358.987 182.473C358.522 182.008 358.29 181.391 358.29 180.62V176.285H357.27V173.99H358.29L358.63 171.95H361.265V173.99H363.39V176.285H361.265V180.195C361.265 180.365 361.321 180.507 361.435 180.62C361.548 180.733 361.69 180.79 361.86 180.79H364.07V183ZM368.675 174.33V183H365.7V176.625H364.425V174.33H368.675ZM365.7 170.93H368.675V173.31H365.7V170.93ZM376.415 173.99H379.56L376.16 183H372.76L369.36 173.99H372.505L374.46 180.11L376.415 173.99ZM383.561 175.945C383.107 175.945 382.881 176.172 382.881 176.625V177.56H385.771V176.625C385.771 176.172 385.544 175.945 385.091 175.945H383.561ZM388.406 182.83C386.218 183.057 384.235 183.17 382.456 183.17C381.685 183.17 381.067 182.938 380.603 182.473C380.138 182.008 379.906 181.391 379.906 180.62V176.54C379.906 175.69 380.144 175.027 380.62 174.551C381.107 174.064 381.776 173.82 382.626 173.82H386.026C386.876 173.82 387.539 174.064 388.015 174.551C388.502 175.027 388.746 175.69 388.746 176.54V179.685H382.881V180.365C382.881 180.535 382.937 180.677 383.051 180.79C383.164 180.903 383.306 180.96 383.476 180.96C384.598 180.96 386.241 180.875 388.406 180.705V182.83ZM398.851 175.945C398.397 175.945 398.171 176.172 398.171 176.625V177.56H401.061V176.625C401.061 176.172 400.834 175.945 400.381 175.945H398.851ZM403.696 182.83C401.508 183.057 399.525 183.17 397.746 183.17C396.975 183.17 396.357 182.938 395.893 182.473C395.428 182.008 395.196 181.391 395.196 180.62V176.54C395.196 175.69 395.434 175.027 395.91 174.551C396.397 174.064 397.066 173.82 397.916 173.82H401.316C402.166 173.82 402.829 174.064 403.305 174.551C403.792 175.027 404.036 175.69 404.036 176.54V179.685H398.171V180.365C398.171 180.535 398.227 180.677 398.341 180.79C398.454 180.903 398.596 180.96 398.766 180.96C399.888 180.96 401.531 180.875 403.696 180.705V182.83ZM410.663 173.99H413.978L411.258 178.495L414.063 183H410.748L409.218 180.28L407.688 183H404.373L407.178 178.495L404.458 173.99H407.773L409.218 176.71L410.663 173.99ZM419.755 176.285C419.154 176.285 418.474 176.398 417.715 176.625V180.705H420.265C420.718 180.705 420.945 180.478 420.945 180.025V176.88C420.945 176.71 420.888 176.568 420.775 176.455C420.661 176.342 420.52 176.285 420.35 176.285H419.755ZM417.715 183V185.89H414.74V173.99H417.375L417.545 174.84C418.077 174.489 418.621 174.234 419.177 174.075C419.743 173.905 420.219 173.82 420.605 173.82H421.37C422.14 173.82 422.758 174.052 423.223 174.517C423.687 174.982 423.92 175.599 423.92 176.37V180.28C423.92 181.13 423.676 181.799 423.189 182.286C422.713 182.762 422.05 183 421.2 183H417.715ZM428.933 175.945C428.479 175.945 428.253 176.172 428.253 176.625V177.56H431.143V176.625C431.143 176.172 430.916 175.945 430.463 175.945H428.933ZM433.778 182.83C431.59 183.057 429.607 183.17 427.828 183.17C427.057 183.17 426.439 182.938 425.975 182.473C425.51 182.008 425.278 181.391 425.278 180.62V176.54C425.278 175.69 425.516 175.027 425.992 174.551C426.479 174.064 427.148 173.82 427.998 173.82H431.398C432.248 173.82 432.911 174.064 433.387 174.551C433.874 175.027 434.118 175.69 434.118 176.54V179.685H428.253V180.365C428.253 180.535 428.309 180.677 428.423 180.79C428.536 180.903 428.678 180.96 428.848 180.96C429.97 180.96 431.613 180.875 433.778 180.705V182.83ZM440.826 176.455C440.112 176.455 439.375 176.625 438.616 176.965V183H435.641V173.99H438.276L438.446 175.095C439.421 174.245 440.441 173.82 441.506 173.82H442.271V176.455H440.826ZM447.2 174.33V183H444.225V176.625H442.95V174.33H447.2ZM444.225 170.93H447.2V173.31H444.225V170.93ZM452.391 175.945C451.937 175.945 451.711 176.172 451.711 176.625V177.56H454.601V176.625C454.601 176.172 454.374 175.945 453.921 175.945H452.391ZM457.236 182.83C455.048 183.057 453.065 183.17 451.286 183.17C450.515 183.17 449.897 182.938 449.433 182.473C448.968 182.008 448.736 181.391 448.736 180.62V176.54C448.736 175.69 448.974 175.027 449.45 174.551C449.937 174.064 450.606 173.82 451.456 173.82H454.856C455.706 173.82 456.369 174.064 456.845 174.551C457.332 175.027 457.576 175.69 457.576 176.54V179.685H451.711V180.365C451.711 180.535 451.767 180.677 451.881 180.79C451.994 180.903 452.136 180.96 452.306 180.96C453.428 180.96 455.071 180.875 457.236 180.705V182.83ZM464.114 176.285C463.513 176.285 462.833 176.398 462.074 176.625V183H459.099V173.99H461.734L461.904 174.84C462.437 174.489 462.981 174.234 463.536 174.075C464.103 173.905 464.579 173.82 464.964 173.82H465.729C466.5 173.82 467.117 174.052 467.582 174.517C468.047 174.982 468.279 175.599 468.279 176.37V183H465.304V176.88C465.304 176.71 465.247 176.568 465.134 176.455C465.021 176.342 464.879 176.285 464.709 176.285H464.114ZM477.797 182.83C475.678 183.057 473.808 183.17 472.187 183.17C471.416 183.17 470.799 182.938 470.334 182.473C469.869 182.008 469.637 181.391 469.637 180.62V176.71C469.637 175.86 469.875 175.197 470.351 174.721C470.838 174.234 471.507 173.99 472.357 173.99H477.797V176.285H473.292C472.839 176.285 472.612 176.512 472.612 176.965V180.28C472.612 180.45 472.669 180.592 472.782 180.705C472.895 180.818 473.037 180.875 473.207 180.875C474.227 180.875 475.757 180.79 477.797 180.62V182.83ZM482.639 175.945C482.185 175.945 481.959 176.172 481.959 176.625V177.56H484.849V176.625C484.849 176.172 484.622 175.945 484.169 175.945H482.639ZM487.484 182.83C485.296 183.057 483.313 183.17 481.534 183.17C480.763 183.17 480.145 182.938 479.681 182.473C479.216 182.008 478.984 181.391 478.984 180.62V176.54C478.984 175.69 479.222 175.027 479.698 174.551C480.185 174.064 480.854 173.82 481.704 173.82H485.104C485.954 173.82 486.617 174.064 487.093 174.551C487.58 175.027 487.824 175.69 487.824 176.54V179.685H481.959V180.365C481.959 180.535 482.015 180.677 482.129 180.79C482.242 180.903 482.384 180.96 482.554 180.96C483.676 180.96 485.319 180.875 487.484 180.705V182.83ZM489.007 180.62C491.308 180.79 493.121 180.875 494.447 180.875C494.617 180.875 494.759 180.818 494.872 180.705C494.985 180.592 495.042 180.45 495.042 180.28V179.685H491.387C490.616 179.685 489.999 179.453 489.534 178.988C489.069 178.523 488.837 177.906 488.837 177.135V176.54C488.837 175.769 489.069 175.152 489.534 174.687C489.999 174.222 490.616 173.99 491.387 173.99H497.167V176.2H492.407C492.237 176.2 492.095 176.257 491.982 176.37C491.869 176.483 491.812 176.625 491.812 176.795C491.812 176.965 491.869 177.107 491.982 177.22C492.095 177.333 492.237 177.39 492.407 177.39H495.467C496.238 177.39 496.855 177.622 497.32 178.087C497.785 178.552 498.017 179.169 498.017 179.94V180.62C498.017 181.391 497.785 182.008 497.32 182.473C496.855 182.938 496.238 183.17 495.467 183.17C493.461 183.17 491.308 183.057 489.007 182.83V180.62ZM498.868 180.45H501.928V183H498.868V180.45ZM503.292 175.35L502.952 172.63V171.1H505.502V172.63L505.162 175.35H503.292ZM506.522 175.35L506.182 172.63V171.1H508.732V172.63L508.392 175.35H506.522ZM511.204 177.985C511.204 174.993 510.496 172.415 509.079 170.25L510.524 169.06C511.725 170.171 512.649 171.497 513.295 173.038C513.941 174.579 514.264 176.228 514.264 177.985C514.264 179.742 513.941 181.391 513.295 182.932C512.649 184.473 511.725 185.799 510.524 186.91L509.079 185.72C510.496 183.555 511.204 180.977 511.204 177.985ZM515.287 173.99H518.347V176.54H515.287V173.99ZM515.287 180.45H518.347V182.83L517.157 184.7H515.627L516.477 183H515.287V180.45Z" fill="white"/>
</g>
<defs>
<filter id="filter0_f_17_14" x="-20" y="-20" width="584" height="256" filterUnits="userSpaceOnUse" color-interpolation-filters="sRGB">
<feFlood flood-opacity="0" result="BackgroundImageFix"/>
<feBlend mode="normal" in="SourceGraphic" in2="BackgroundImageFix" result="shape"/>
<feGaussianBlur stdDeviation="10" result="effect1_foregroundBlur_17_14"/>
</filter>
</defs>
</svg>
