<svg width="50" height="48" viewBox="0 0 50 48" fill="none" xmlns="http://www.w3.org/2000/svg">
<path d="M43.4234 0H25.9413L21.9937 7.89517H0V39.4759H47.371V0H43.4234ZM43.4234 7.89517H28.009L30.0768 3.94759H43.4234V7.89517Z" fill="#14622A"/>
<path d="M27.7192 47.9144C27.5882 47.9138 27.4576 47.898 27.3301 47.8674C26.8574 47.7288 26.4543 47.4171 26.2014 46.9944C25.9484 46.5718 25.8641 46.0692 25.9654 45.5872L31.0578 18.4597C31.103 18.2005 31.2003 17.953 31.3437 17.7324C31.4872 17.5117 31.6738 17.3224 31.8924 17.1758C32.0844 17.0497 32.3002 16.9642 32.5266 16.9248C32.7529 16.8854 32.9849 16.8927 33.2083 16.9465C33.6808 17.0854 34.0838 17.3971 34.337 17.8196C34.5902 18.2421 34.6752 18.7444 34.5749 19.2267L29.4693 46.356C29.4245 46.6144 29.3277 46.8611 29.1849 47.0811C29.0421 47.3011 28.8562 47.4899 28.6385 47.6361C28.3654 47.8157 28.0461 47.9124 27.7192 47.9144Z" fill="#06CC14"/>
<path d="M37.9309 44.0701H37.8031C37.5554 44.048 37.3154 43.9733 37.0988 43.8511C36.8823 43.7289 36.6943 43.562 36.5474 43.3614C36.2578 42.9665 36.1177 42.4817 36.1521 41.9932C36.1866 41.5048 36.3932 41.0443 36.7353 40.694L45.4915 32.1352L36.7729 24.1668C36.4206 23.8264 36.2006 23.372 36.152 22.8845C36.1035 22.397 36.2296 21.9081 36.5079 21.505C36.6496 21.2985 36.8338 21.1246 37.0481 20.995C37.2623 20.8653 37.5018 20.7828 37.7504 20.753C37.9915 20.7275 38.2353 20.754 38.4653 20.8309C38.6952 20.9077 38.906 21.0331 39.0832 21.1985L49.3657 30.5976C49.7189 30.9372 49.94 31.3913 49.9896 31.8788C50.0392 32.3663 49.914 32.8556 49.6364 33.2594C49.5581 33.3703 49.4687 33.473 49.3695 33.5658L39.1302 43.5738C38.8105 43.8894 38.3801 44.0675 37.9309 44.0701Z" fill="#06CC14"/>
<path d="M22.6009 44.0758C22.1501 44.0725 21.7187 43.8922 21.3997 43.5739L11.151 33.5601C11.0577 33.4739 10.9745 33.3774 10.9028 33.2725C10.6233 32.8705 10.4965 32.3819 10.5451 31.8946C10.5937 31.4074 10.8145 30.9534 11.1679 30.6145L21.4523 21.2155C21.6261 21.05 21.8338 20.9243 22.061 20.8471C22.2882 20.7698 22.5295 20.7429 22.7682 20.7681C23.018 20.7973 23.2587 20.8795 23.4743 21.0092C23.6899 21.1388 23.8753 21.313 24.0182 21.52C24.2973 21.9231 24.424 22.4123 24.3758 22.9002C24.3276 23.3881 24.1076 23.843 23.7551 24.1837L15.0384 32.1446L23.7964 40.6996C24.1409 41.0486 24.3492 41.5094 24.3837 41.9986C24.4182 42.4878 24.2766 42.9732 23.9844 43.3671C23.8376 43.5682 23.6494 43.7355 23.4324 43.8578C23.2155 43.98 22.9749 44.0543 22.7268 44.0758H22.6009Z" fill="#06CC14"/>
</svg>
