<svg width="375" height="164" viewBox="0 0 375 164" fill="none" xmlns="http://www.w3.org/2000/svg">
<g filter="url(#filter0_d_39_102)">
<rect x="50" y="50" width="275" height="64" rx="15" fill="url(#paint0_linear_39_102)" shape-rendering="crispEdges"/>
<path fill-rule="evenodd" clip-rule="evenodd" d="M98.0002 61.9844C86.6754 61.9844 77.4922 71.1659 77.4922 82.4924C77.4922 91.5533 83.3683 99.2406 91.5168 101.952C92.5417 102.142 92.918 101.507 92.918 100.966C92.918 100.477 92.899 98.8612 92.8902 97.1476C87.1848 98.3882 85.9809 94.7279 85.9809 94.7279C85.048 92.3575 83.7039 91.7272 83.7039 91.7272C81.8432 90.4544 83.8441 90.4805 83.8441 90.4805C85.9035 90.6252 86.9878 92.5939 86.9878 92.5939C88.8169 95.7291 91.7854 94.8227 92.9557 94.2987C93.1398 92.9732 93.6712 92.0685 94.2577 91.5564C89.7026 91.0378 84.9142 89.2793 84.9142 81.4212C84.9142 79.1822 85.7153 77.3528 87.0272 75.9166C86.8143 75.4001 86.1123 73.3142 87.2259 70.4894C87.2259 70.4894 88.948 69.9382 92.8671 72.5916C94.5029 72.1372 96.2573 71.9093 98.0002 71.9015C99.743 71.9093 101.499 72.1372 103.138 72.5916C107.052 69.9382 108.772 70.4894 108.772 70.4894C109.888 73.3142 109.186 75.4001 108.973 75.9166C110.288 77.3528 111.083 79.1822 111.083 81.4212C111.083 89.298 106.286 91.0324 101.719 91.5401C102.455 92.1765 103.11 93.4245 103.11 95.3379C103.11 98.0819 103.086 100.29 103.086 100.966C103.086 101.512 103.456 102.151 104.495 101.95C112.639 99.2348 118.508 91.5503 118.508 82.4924C118.508 71.1659 109.326 61.9844 98.0002 61.9844ZM85.1731 91.1984C85.1279 91.3003 84.9676 91.3309 84.8216 91.2609C84.6729 91.194 84.5893 91.0551 84.6375 90.9529C84.6817 90.848 84.8423 90.8188 84.9907 90.889C85.1398 90.956 85.2247 91.0962 85.1731 91.1984ZM86.1819 92.0985C86.0841 92.1892 85.8929 92.1471 85.7631 92.0038C85.629 91.8608 85.6039 91.6696 85.703 91.5776C85.8039 91.4869 85.9893 91.5294 86.1238 91.6723C86.2579 91.817 86.2841 92.0068 86.1819 92.0985ZM86.8739 93.2502C86.7483 93.3375 86.5428 93.2556 86.4158 93.0733C86.2901 92.8909 86.2901 92.6722 86.4185 92.5846C86.5459 92.497 86.7483 92.5757 86.877 92.7567C87.0023 92.9422 87.0023 93.1609 86.8739 93.2502ZM88.0443 94.584C87.9319 94.7079 87.6925 94.6746 87.5173 94.5055C87.3379 94.3401 87.288 94.1055 87.4008 93.9815C87.5145 93.8572 87.7553 93.8922 87.9319 94.06C88.1099 94.225 88.1642 94.4614 88.0443 94.584ZM89.557 95.0342C89.5074 95.1949 89.2768 95.2679 89.0445 95.1996C88.8125 95.1293 88.6607 94.9412 88.7076 94.7789C88.7558 94.6172 88.9874 94.5411 89.2214 94.6142C89.453 94.6841 89.6052 94.8709 89.557 95.0342ZM91.2784 95.2252C91.2842 95.3944 91.0872 95.5346 90.8434 95.5377C90.5982 95.5431 90.3998 95.4062 90.3971 95.2398C90.3971 95.069 90.5897 94.9301 90.8349 94.926C91.0787 94.9213 91.2784 95.0571 91.2784 95.2252ZM92.9695 95.1604C92.9987 95.3255 92.8293 95.4949 92.5871 95.5401C92.3491 95.5836 92.1287 95.4817 92.0984 95.318C92.0689 95.1489 92.2414 94.9794 92.4791 94.9356C92.7216 94.8935 92.9386 94.9926 92.9695 95.1604Z" fill="black"/>
</g>
<defs>
<filter id="filter0_d_39_102" x="0" y="0" width="375" height="164" filterUnits="userSpaceOnUse" color-interpolation-filters="sRGB">
<feFlood flood-opacity="0" result="BackgroundImageFix"/>
<feColorMatrix in="SourceAlpha" type="matrix" values="0 0 0 0 0 0 0 0 0 0 0 0 0 0 0 0 0 0 127 0" result="hardAlpha"/>
<feOffset/>
<feGaussianBlur stdDeviation="25"/>
<feComposite in2="hardAlpha" operator="out"/>
<feColorMatrix type="matrix" values="0 0 0 0 0.0627451 0 0 0 0 0.937255 0 0 0 0 1 0 0 0 0.5 0"/>
<feBlend mode="normal" in2="BackgroundImageFix" result="effect1_dropShadow_39_102"/>
<feBlend mode="normal" in="SourceGraphic" in2="effect1_dropShadow_39_102" result="shape"/>
</filter>
<linearGradient id="paint0_linear_39_102" x1="293.5" y1="140.98" x2="4.49999" y2="140.98" gradientUnits="userSpaceOnUse">
<stop stop-color="#010916"/>
<stop offset="1" stop-color="#E74BE4"/>
</linearGradient>
</defs>
</svg>
