<svg width="50" height="42" viewBox="0 0 50 42" fill="none" xmlns="http://www.w3.org/2000/svg">
<path d="M44.0984 0H29.0164L25.5738 6.88524H6.22952V13.4426H0L6.22952 34.4262H47.5411V0H44.0984ZM32.2951 3.44262H43.9345V6.88524H30.6558L32.2951 3.44262ZM41.3115 13.4426H10V10.3279H44.0984V22.8295L41.3115 13.4426Z" fill="#BBBBBB"/>
<path fill-rule="evenodd" clip-rule="evenodd" d="M50 24.5901C50 27.9946 48.9905 31.3225 47.0991 34.1532C45.2077 36.9839 42.5194 39.1901 39.3741 40.493C36.2288 41.7958 32.7678 42.1367 29.4288 41.4725C26.0897 40.8083 23.0227 39.1689 20.6154 36.7616C18.208 34.3543 16.5687 31.2873 15.9045 27.9482C15.2403 24.6092 15.5812 21.1482 16.884 18.003C18.1868 14.8577 20.3931 12.1693 23.2238 10.2779C26.0545 8.38655 29.3824 7.37701 32.7869 7.37701C37.3521 7.37701 41.7303 9.19053 44.9584 12.4186C48.1865 15.6467 50 20.0249 50 24.5901Z" fill="white"/>
<path fill-rule="evenodd" clip-rule="evenodd" d="M36.9067 36.2295C36.9503 35.6457 36.8685 35.0593 36.6669 34.5096C36.4653 33.96 36.1485 33.4598 35.7378 33.0426C39.5722 32.6164 43.5968 31.1606 43.5968 24.5492C43.6241 22.8389 42.9905 21.1841 41.828 19.9295C42.3529 18.4444 42.2914 16.815 41.6559 15.3738C41.6559 15.3738 40.2132 14.9115 36.928 17.1393C34.1068 16.3655 31.1294 16.3655 28.3083 17.1393C25.0214 14.9115 23.5755 15.3738 23.5755 15.3738C22.9436 16.8163 22.885 18.4453 23.4116 19.9295C22.2507 21.1821 21.6161 22.8333 21.6394 24.541C21.6394 31.136 25.6575 32.6131 29.4804 33.0475C28.8552 33.6586 28.4677 34.4721 28.387 35.3426C27.9648 35.5803 27.4997 35.7318 27.0186 35.7884C26.5375 35.8451 26.0499 35.8057 25.5841 35.6726C25.1183 35.5395 24.6835 35.3153 24.305 35.013C23.9264 34.7107 23.6116 34.3363 23.3788 33.9115C23.103 33.4347 22.722 33.0271 22.2649 32.7197C21.8079 32.4123 21.2867 32.2133 20.7411 32.1377C20.7411 32.1377 19.0607 32.1164 20.623 33.1852C21.5401 33.769 22.2181 34.6616 22.5345 35.7016C22.5345 35.7016 23.5443 39.0508 28.3329 38.0098C28.3329 39.4459 28.3558 40.5295 28.3558 40.9377C28.3529 41.0365 28.3352 41.1343 28.3034 41.2278C31.1332 41.9863 34.1129 41.9863 36.9427 41.2278C36.9099 41.1366 36.8905 41.0411 36.8854 40.9442C36.8854 40.3803 36.9067 38.5246 36.9067 36.2295Z" fill="#333333"/>
</svg>
